KA Almouzios Martyria-Regular.ufo
<glyph name="exclam" format="2">
	<advance width="0"/>
	<unicode hex="0021"/>
	<outline>
		<contour>
			<point x="-290" y="-33" type="curve"/>
			<point x="-290" y="-33" type="line"/>
			<point x="-315" y="-24"/>
			<point x="-331" y="-9"/>
			<point x="-339" y="11" type="curve"/>
			<point x="-348" y="27"/>
			<point x="-350" y="57"/>
			<point x="-348" y="105" type="curve"/>
			<point x="-347" y="145" type="line"/>
			<point x="-365" y="145" type="line"/>
			<point x="-382" y="145" type="line"/>
			<point x="-383" y="130" type="line"/>
			<point x="-383" y="123"/>
			<point x="-384" y="99"/>
			<point x="-386" y="74" type="curve"/>
			<point x="-387" y="28"/>
			<point x="-388" y="16"/>
			<point x="-395" y="1" type="curve"/>
			<point x="-404" y="-14"/>
			<point x="-410" y="-17"/>
			<point x="-435" y="-18" type="curve"/>
			<point x="-455" y="-19"/>
			<point x="-458" y="-18"/>
			<point x="-460" y="-16" type="curve"/>
			<point x="-460" y="-14"/>
			<point x="-457" y="3"/>
			<point x="-452" y="21" type="curve"/>
			<point x="-444" y="60"/>
			<point x="-434" y="112"/>
			<point x="-434" y="127" type="curve"/>
			<point x="-434" y="144"/>
			<point x="-437" y="145"/>
			<point x="-477" y="145" type="curve"/>
			<point x="-511" y="145" type="line"/>
			<point x="-511" y="140" type="line"/>
			<point x="-511" y="129"/>
			<point x="-514" y="127"/>
			<point x="-530" y="128" type="curve"/>
			<point x="-550" y="129"/>
			<point x="-555" y="133"/>
			<point x="-555" y="147" type="curve"/>
			<point x="-555" y="159"/>
			<point x="-551" y="168"/>
			<point x="-545" y="174" type="curve"/>
			<point x="-540" y="179" type="line"/>
			<point x="-375" y="179" type="line"/>
			<point x="-187" y="179"/>
			<point x="-202" y="181"/>
			<point x="-200" y="163" type="curve"/>
			<point x="-198" y="156"/>
			<point x="-200" y="153"/>
			<point x="-203" y="150" type="curve"/>
			<point x="-208" y="145"/>
			<point x="-211" y="145"/>
			<point x="-242" y="144" type="curve"/>
			<point x="-276" y="144" type="line"/>
			<point x="-279" y="122" type="line"/>
			<point x="-281" y="80"/>
			<point x="-275" y="34"/>
			<point x="-260" y="1" type="curve"/>
			<point x="-252" y="-19"/>
			<point x="-253" y="-25"/>
			<point x="-263" y="-30" type="curve"/>
			<point x="-275" y="-35"/>
			<point x="-279" y="-36"/>
		</contour>
	</outline>
</glyph>
<glyph name="dollar" format="2">
	<advance width="0"/>
	<unicode hex="0024"/>
	<outline>
		<contour>
			<point x="-483" y="81" type="line"/>
			<point x="-498" y="95" type="line"/>
			<point x="-515" y="111"/>
			<point x="-517" y="116"/>
			<point x="-508" y="123" type="curve"/>
			<point x="-504" y="127"/>
			<point x="-498" y="128"/>
			<point x="-474" y="129" type="curve"/>
			<point x="-446" y="130" type="line"/>
			<point x="-401" y="241" type="line"/>
			<point x="-377" y="302"/>
			<point x="-356" y="354"/>
			<point x="-354" y="358" type="curve"/>
			<point x="-352" y="362"/>
			<point x="-348" y="364"/>
			<point x="-343" y="364" type="curve"/>
			<point x="-336" y="364"/>
			<point x="-334" y="362"/>
			<point x="-328" y="351" type="curve"/>
			<point x="-325" y="344"/>
			<point x="-313" y="311"/>
			<point x="-302" y="278" type="curve"/>
			<point x="-265" y="164"/>
			<point x="-254" y="135"/>
			<point x="-235" y="103" type="curve"/>
			<point x="-230" y="95"/>
			<point x="-227" y="86"/>
			<point x="-227" y="84" type="curve"/>
			<point x="-228" y="81"/>
			<point x="-251" y="81"/>
			<point x="-356" y="81" type="curve"/>
		</contour>
		<contour>
			<point x="-326" y="146" type="curve"/>
			<point x="-326" y="146" type="line"/>
			<point x="-325" y="148"/>
			<point x="-341" y="238"/>
			<point x="-343" y="239" type="curve"/>
			<point x="-347" y="240"/>
			<point x="-385" y="157"/>
			<point x="-385" y="149" type="curve"/>
			<point x="-385" y="142" type="line"/>
			<point x="-356" y="145" type="line"/>
			<point x="-341" y="145"/>
			<point x="-327" y="146"/>
		</contour>
	</outline>
</glyph>
<glyph name="percent" format="2">
	<advance width="0"/>
	<unicode hex="0025"/>
	<outline>
		<contour>
			<point x="-487" y="-67" type="curve"/>
			<point x="-487" y="-67" type="line"/>
			<point x="-490" y="-65"/>
			<point x="-493" y="-60"/>
			<point x="-494" y="-56" type="curve"/>
			<point x="-495" y="-51"/>
			<point x="-494" y="-48"/>
			<point x="-483" y="-33" type="curve"/>
			<point x="-469" y="-13"/>
			<point x="-457" y="12"/>
			<point x="-456" y="22" type="curve"/>
			<point x="-455" y="27"/>
			<point x="-459" y="47"/>
			<point x="-470" y="93" type="curve"/>
			<point x="-483" y="144"/>
			<point x="-486" y="159"/>
			<point x="-486" y="170" type="curve"/>
			<point x="-486" y="184" type="line"/>
			<point x="-478" y="191" type="line"/>
			<point x="-469" y="200"/>
			<point x="-450" y="208"/>
			<point x="-422" y="214" type="curve"/>
			<point x="-399" y="218"/>
			<point x="-398" y="218"/>
			<point x="-393" y="213" type="curve"/>
			<point x="-389" y="209" type="line"/>
			<point x="-394" y="169" type="line"/>
			<point x="-398" y="140"/>
			<point x="-399" y="129"/>
			<point x="-398" y="125" type="curve"/>
			<point x="-397" y="123"/>
			<point x="-396" y="121"/>
			<point x="-395" y="121" type="curve"/>
			<point x="-395" y="121"/>
			<point x="-363" y="132"/>
			<point x="-326" y="145" type="curve"/>
			<point x="-258" y="169"/>
			<point x="-256" y="169"/>
			<point x="-243" y="169" type="curve"/>
			<point x="-231" y="168"/>
			<point x="-230" y="168"/>
			<point x="-227" y="163" type="curve"/>
			<point x="-223" y="156"/>
			<point x="-219" y="134"/>
			<point x="-221" y="125" type="curve"/>
			<point x="-222" y="118"/>
			<point x="-230" y="108"/>
			<point x="-239" y="104" type="curve"/>
			<point x="-242" y="102"/>
			<point x="-251" y="100"/>
			<point x="-258" y="99" type="curve"/>
			<point x="-277" y="97"/>
			<point x="-383" y="60"/>
			<point x="-388" y="54" type="curve"/>
			<point x="-389" y="54"/>
			<point x="-389" y="52"/>
			<point x="-390" y="50" type="curve"/>
			<point x="-391" y="46"/>
			<point x="-390" y="45"/>
			<point x="-386" y="44" type="curve"/>
			<point x="-374" y="39"/>
			<point x="-336" y="31"/>
			<point x="-291" y="23" type="curve"/>
			<point x="-225" y="13"/>
			<point x="-224" y="12"/>
			<point x="-219" y="6" type="curve"/>
			<point x="-211" y="-5"/>
			<point x="-209" y="-11"/>
			<point x="-209" y="-26" type="curve"/>
			<point x="-209" y="-39"/>
			<point x="-209" y="-40"/>
			<point x="-215" y="-45" type="curve"/>
			<point x="-220" y="-50"/>
			<point x="-222" y="-51"/>
			<point x="-228" y="-51" type="curve"/>
			<point x="-232" y="-51"/>
			<point x="-267" y="-43"/>
			<point x="-307" y="-34" type="curve"/>
			<point x="-345" y="-25"/>
			<point x="-377" y="-17"/>
			<point x="-378" y="-17" type="curve"/>
			<point x="-379" y="-17"/>
			<point x="-380" y="-21"/>
			<point x="-382" y="-26" type="curve"/>
			<point x="-385" y="-39"/>
			<point x="-398" y="-53"/>
			<point x="-415" y="-61" type="curve"/>
			<point x="-432" y="-69"/>
			<point x="-446" y="-73"/>
			<point x="-466" y="-73" type="curve"/>
			<point x="-482" y="-73"/>
			<point x="-483" y="-72"/>
		</contour>
	</outline>
</glyph>
<glyph name="comma" format="2">
	<advance width="879"/>
	<unicode hex="002C"/>
	<outline>
		<contour>
			<point x="123" y="-248" type="curve"/>
			<point x="123" y="-248" type="line"/>
			<point x="123" y="-247"/>
			<point x="122" y="-245"/>
			<point x="122" y="-242" type="curve"/>
			<point x="122" y="-239"/>
			<point x="144" y="-178"/>
			<point x="171" y="-107" type="curve"/>
			<point x="219" y="24" type="line"/>
			<point x="212" y="37" type="line"/>
			<point x="201" y="58"/>
			<point x="175" y="96"/>
			<point x="164" y="108" type="curve"/>
			<point x="151" y="121"/>
			<point x="140" y="128"/>
			<point x="130" y="130" type="curve"/>
			<point x="122" y="131"/>
			<point x="120" y="135"/>
			<point x="120" y="148" type="curve"/>
			<point x="120" y="162"/>
			<point x="123" y="170"/>
			<point x="133" y="179" type="curve"/>
			<point x="141" y="188"/>
			<point x="156" y="194"/>
			<point x="168" y="195" type="curve"/>
			<point x="175" y="196" type="line"/>
			<point x="208" y="155" type="line"/>
			<point x="238" y="120"/>
			<point x="243" y="115"/>
			<point x="248" y="115" type="curve"/>
			<point x="253" y="114"/>
			<point x="254" y="115"/>
			<point x="259" y="126" type="curve"/>
			<point x="262" y="133"/>
			<point x="271" y="152"/>
			<point x="279" y="168" type="curve"/>
			<point x="294" y="198"/>
			<point x="307" y="218"/>
			<point x="314" y="222" type="curve"/>
			<point x="316" y="223"/>
			<point x="323" y="223"/>
			<point x="331" y="223" type="curve"/>
			<point x="345" y="222" type="line"/>
			<point x="347" y="215" type="line"/>
			<point x="350" y="208" type="line"/>
			<point x="328" y="179" type="line"/>
			<point x="309" y="153"/>
			<point x="305" y="147"/>
			<point x="295" y="124" type="curve"/>
			<point x="281" y="93"/>
			<point x="279" y="86"/>
			<point x="280" y="68" type="curve"/>
			<point x="280" y="56"/>
			<point x="282" y="52"/>
			<point x="290" y="35" type="curve"/>
			<point x="295" y="24"/>
			<point x="303" y="8"/>
			<point x="308" y="0" type="curve"/>
			<point x="317" y="-17"/>
			<point x="344" y="-81"/>
			<point x="356" y="-118" type="curve"/>
			<point x="368" y="-154"/>
			<point x="373" y="-172"/>
			<point x="374" y="-190" type="curve"/>
			<point x="375" y="-210"/>
			<point x="373" y="-215"/>
			<point x="359" y="-223" type="curve"/>
			<point x="348" y="-230"/>
			<point x="338" y="-231"/>
			<point x="335" y="-226" type="curve"/>
			<point x="334" y="-224"/>
			<point x="322" y="-194"/>
			<point x="309" y="-159" type="curve"/>
			<point x="289" y="-107"/>
			<point x="281" y="-89"/>
			<point x="264" y="-55" type="curve"/>
			<point x="252" y="-33"/>
			<point x="242" y="-14"/>
			<point x="241" y="-14" type="curve"/>
			<point x="241" y="-14"/>
			<point x="222" y="-65"/>
			<point x="201" y="-128" type="curve"/>
			<point x="162" y="-243" type="line"/>
			<point x="150" y="-244" type="line"/>
			<point x="143" y="-244"/>
			<point x="135" y="-246"/>
			<point x="132" y="-247" type="curve"/>
			<point x="126" y="-249"/>
			<point x="125" y="-250"/>
		</contour>
		<contour>
			<point x="173" y="425" type="line"/>
			<point x="169" y="420" type="line"/>
			<point x="164" y="411"/>
			<point x="164" y="405"/>
			<point x="169" y="397" type="curve"/>
			<point x="180" y="381"/>
			<point x="184" y="361"/>
			<point x="186" y="321" type="curve"/>
			<point x="188" y="279"/>
			<point x="193" y="264"/>
			<point x="211" y="252" type="curve"/>
			<point x="221" y="243"/>
			<point x="227" y="242"/>
			<point x="243" y="250" type="curve"/>
			<point x="267" y="258"/>
			<point x="267" y="256"/>
			<point x="262" y="314" type="curve"/>
			<point x="261" y="342"/>
			<point x="257" y="366"/>
			<point x="257" y="371" type="curve"/>
			<point x="257" y="376" type="line"/>
			<point x="285" y="376" type="line" smooth="yes"/>
			<point x="302" y="376"/>
			<point x="334" y="375"/>
			<point x="359" y="374" type="curve"/>
			<point x="410" y="372"/>
			<point x="421" y="372"/>
			<point x="425" y="381" type="curve"/>
			<point x="428" y="386"/>
			<point x="428" y="390"/>
			<point x="425" y="433" type="curve"/>
			<point x="423" y="460"/>
			<point x="421" y="486"/>
			<point x="421" y="493" type="curve"/>
			<point x="419" y="504" type="line"/>
			<point x="499" y="502" type="line" smooth="yes"/>
			<point x="594" y="500"/>
			<point x="591" y="501"/>
			<point x="590" y="524" type="curve"/>
			<point x="590" y="526"/>
			<point x="589" y="527"/>
			<point x="589" y="529" type="curve"/>
			<point x="585" y="579" type="line" smooth="yes"/>
			<point x="583" y="610"/>
			<point x="580" y="637"/>
			<point x="580" y="639" type="curve"/>
			<point x="580" y="642"/>
			<point x="583" y="642"/>
			<point x="624" y="642" type="curve"/>
			<point x="649" y="642"/>
			<point x="676" y="641"/>
			<point x="685" y="640" type="curve"/>
			<point x="734" y="635"/>
			<point x="746" y="636"/>
			<point x="755" y="645" type="curve"/>
			<point x="759" y="649"/>
			<point x="760" y="650"/>
			<point x="759" y="661" type="curve"/>
			<point x="757" y="674"/>
			<point x="754" y="682"/>
			<point x="746" y="687" type="curve"/>
			<point x="742" y="691"/>
			<point x="739" y="691"/>
			<point x="726" y="690" type="curve"/>
			<point x="697" y="689"/>
			<point x="605" y="689"/>
			<point x="549" y="691" type="curve"/>
			<point x="493" y="693" type="line"/>
			<point x="490" y="688" type="line"/>
			<point x="485" y="682"/>
			<point x="486" y="670"/>
			<point x="493" y="657" type="curve"/>
			<point x="500" y="640"/>
			<point x="505" y="617"/>
			<point x="507" y="581" type="curve"/>
			<point x="508" y="570"/>
			<point x="508" y="560"/>
			<point x="509" y="553" type="curve"/>
			<point x="335" y="553" type="line"/>
			<point x="331" y="549" type="line"/>
			<point x="327" y="542"/>
			<point x="328" y="533"/>
			<point x="334" y="518" type="curve"/>
			<point x="342" y="502"/>
			<point x="346" y="484"/>
			<point x="348" y="447" type="curve"/>
			<point x="349" y="423" type="line"/>
		</contour>
	</outline>
</glyph>
<glyph name="slash" format="2">
	<advance width="579"/>
	<unicode hex="002F"/>
	<outline>
		<contour>
			<point x="387" y="-186" type="curve"/>
			<point x="387" y="-186" type="line"/>
			<point x="364" y="-179"/>
			<point x="343" y="-148"/>
			<point x="337" y="-110" type="curve"/>
			<point x="335" y="-99"/>
			<point x="333" y="-61"/>
			<point x="332" y="-24" type="curve"/>
			<point x="329" y="40"/>
			<point x="329" y="42"/>
			<point x="323" y="43" type="curve"/>
			<point x="317" y="44"/>
			<point x="316" y="42"/>
			<point x="315" y="21" type="curve"/>
			<point x="314" y="8"/>
			<point x="313" y="-29"/>
			<point x="313" y="-62" type="curve"/>
			<point x="313" y="-121" type="line"/>
			<point x="304" y="-135" type="line"/>
			<point x="293" y="-152"/>
			<point x="273" y="-165"/>
			<point x="253" y="-167" type="curve"/>
			<point x="230" y="-170"/>
			<point x="227" y="-161"/>
			<point x="237" y="-118" type="curve"/>
			<point x="247" y="-83"/>
			<point x="255" y="-19"/>
			<point x="255" y="11" type="curve"/>
			<point x="255" y="34"/>
			<point x="254" y="38"/>
			<point x="250" y="39" type="curve"/>
			<point x="239" y="42"/>
			<point x="206" y="47"/>
			<point x="204" y="45" type="curve"/>
			<point x="202" y="44"/>
			<point x="198" y="38"/>
			<point x="193" y="30" type="curve"/>
			<point x="186" y="19"/>
			<point x="184" y="17"/>
			<point x="175" y="17" type="curve"/>
			<point x="166" y="17"/>
			<point x="163" y="19"/>
			<point x="157" y="29" type="curve"/>
			<point x="149" y="39"/>
			<point x="149" y="43"/>
			<point x="150" y="63" type="curve"/>
			<point x="151" y="82"/>
			<point x="152" y="87"/>
			<point x="159" y="94" type="curve"/>
			<point x="166" y="102" type="line"/>
			<point x="309" y="100" type="line"/>
			<point x="461" y="98"/>
			<point x="469" y="98"/>
			<point x="476" y="84" type="curve"/>
			<point x="482" y="73"/>
			<point x="480" y="51"/>
			<point x="472" y="42" type="curve"/>
			<point x="466" y="34"/>
			<point x="465" y="34"/>
			<point x="446" y="38" type="curve"/>
			<point x="433" y="41"/>
			<point x="425" y="41"/>
			<point x="420" y="39" type="curve"/>
			<point x="411" y="36" type="line"/>
			<point x="411" y="-15" type="line"/>
			<point x="412" y="-70"/>
			<point x="414" y="-93"/>
			<point x="426" y="-137" type="curve"/>
			<point x="434" y="-163"/>
			<point x="434" y="-165"/>
			<point x="429" y="-173" type="curve"/>
			<point x="424" y="-180"/>
			<point x="408" y="-189"/>
			<point x="400" y="-189" type="curve"/>
			<point x="398" y="-189"/>
			<point x="392" y="-187"/>
		</contour>
		<contour>
			<point x="430" y="133" type="curve"/>
			<point x="430" y="133" type="line"/>
			<point x="413" y="137"/>
			<point x="391" y="150"/>
			<point x="376" y="164" type="curve"/>
			<point x="351" y="186"/>
			<point x="313" y="242"/>
			<point x="307" y="262" type="curve"/>
			<point x="305" y="272" type="line"/>
			<point x="291" y="247" type="line"/>
			<point x="283" y="232"/>
			<point x="272" y="210"/>
			<point x="264" y="196" type="curve"/>
			<point x="251" y="170"/>
			<point x="241" y="160"/>
			<point x="226" y="157" type="curve"/>
			<point x="216" y="155"/>
			<point x="199" y="162"/>
			<point x="196" y="169" type="curve"/>
			<point x="195" y="171"/>
			<point x="201" y="188"/>
			<point x="210" y="206" type="curve"/>
			<point x="250" y="290"/>
			<point x="271" y="347"/>
			<point x="275" y="380" type="curve"/>
			<point x="277" y="399"/>
			<point x="270" y="426"/>
			<point x="254" y="457" type="curve"/>
			<point x="236" y="493"/>
			<point x="221" y="506"/>
			<point x="187" y="514" type="curve"/>
			<point x="171" y="517"/>
			<point x="169" y="519"/>
			<point x="166" y="528" type="curve"/>
			<point x="164" y="537"/>
			<point x="164" y="539"/>
			<point x="175" y="548" type="curve"/>
			<point x="193" y="563"/>
			<point x="205" y="568"/>
			<point x="222" y="566" type="curve"/>
			<point x="253" y="561"/>
			<point x="284" y="535"/>
			<point x="311" y="489" type="curve"/>
			<point x="326" y="464"/>
			<point x="336" y="435"/>
			<point x="369" y="324" type="curve"/>
			<point x="393" y="242"/>
			<point x="404" y="221"/>
			<point x="443" y="191" type="curve"/>
			<point x="456" y="180"/>
			<point x="465" y="170"/>
			<point x="468" y="163" type="curve"/>
			<point x="474" y="150"/>
			<point x="474" y="150"/>
			<point x="467" y="140" type="curve"/>
			<point x="460" y="127"/>
			<point x="454" y="127"/>
		</contour>
	</outline>
</glyph>
<glyph name="one" format="2">
	<advance width="556"/>
	<unicode hex="0031"/>
	<outline>
		<contour>
			<point x="367" y="-499" type="curve"/>
			<point x="367" y="-499" type="line"/>
			<point x="341" y="-490"/>
			<point x="325" y="-475"/>
			<point x="316" y="-455" type="curve"/>
			<point x="308" y="-439"/>
			<point x="306" y="-409"/>
			<point x="307" y="-361" type="curve"/>
			<point x="308" y="-321" type="line"/>
			<point x="291" y="-321" type="line"/>
			<point x="274" y="-321" type="line"/>
			<point x="273" y="-336" type="line"/>
			<point x="272" y="-343"/>
			<point x="271" y="-367"/>
			<point x="271" y="-392" type="curve"/>
			<point x="269" y="-438"/>
			<point x="267" y="-450"/>
			<point x="260" y="-465" type="curve"/>
			<point x="252" y="-480"/>
			<point x="246" y="-483"/>
			<point x="220" y="-484" type="curve"/>
			<point x="200" y="-485"/>
			<point x="197" y="-484"/>
			<point x="195" y="-482" type="curve"/>
			<point x="195" y="-480"/>
			<point x="198" y="-463"/>
			<point x="203" y="-445" type="curve"/>
			<point x="212" y="-406"/>
			<point x="221" y="-354"/>
			<point x="221" y="-339" type="curve"/>
			<point x="221" y="-322"/>
			<point x="220" y="-321"/>
			<point x="180" y="-321" type="curve"/>
			<point x="144" y="-321" type="line"/>
			<point x="144" y="-326" type="line"/>
			<point x="144" y="-337"/>
			<point x="141" y="-339"/>
			<point x="125" y="-338" type="curve"/>
			<point x="105" y="-337"/>
			<point x="100" y="-333"/>
			<point x="100" y="-319" type="curve"/>
			<point x="100" y="-307"/>
			<point x="104" y="-298"/>
			<point x="110" y="-292" type="curve"/>
			<point x="115" y="-287" type="line"/>
			<point x="282" y="-287" type="line"/>
			<point x="468" y="-287"/>
			<point x="453" y="-285"/>
			<point x="455" y="-303" type="curve"/>
			<point x="457" y="-310"/>
			<point x="455" y="-313"/>
			<point x="452" y="-316" type="curve"/>
			<point x="447" y="-321"/>
			<point x="444" y="-321"/>
			<point x="413" y="-322" type="curve"/>
			<point x="379" y="-322" type="line"/>
			<point x="378" y="-344" type="line"/>
			<point x="375" y="-386"/>
			<point x="381" y="-432"/>
			<point x="395" y="-465" type="curve"/>
			<point x="403" y="-485"/>
			<point x="402" y="-491"/>
			<point x="392" y="-496" type="curve"/>
			<point x="381" y="-501"/>
			<point x="378" y="-502"/>
		</contour>
	</outline>
</glyph>
<glyph name="two" format="2">
	<advance width="454"/>
	<unicode hex="0032"/>
	<outline>
		<contour>
			<point x="197" y="-598" type="curve"/>
			<point x="197" y="-598" type="line"/>
			<point x="161" y="-592"/>
			<point x="146" y="-583"/>
			<point x="129" y="-564" type="curve"/>
			<point x="91" y="-522"/>
			<point x="94" y="-472"/>
			<point x="116" y="-416" type="curve"/>
			<point x="149" y="-332"/>
			<point x="189" y="-279"/>
			<point x="236" y="-257" type="curve"/>
			<point x="253" y="-249"/>
			<point x="265" y="-243"/>
			<point x="284" y="-245" type="curve"/>
			<point x="312" y="-248"/>
			<point x="326" y="-255"/>
			<point x="344" y="-287" type="curve"/>
			<point x="350" y="-298"/>
			<point x="354" y="-312"/>
			<point x="354" y="-322" type="curve"/>
			<point x="354" y="-338"/>
			<point x="330" y="-366"/>
			<point x="299" y="-387" type="curve"/>
			<point x="272" y="-405"/>
			<point x="226" y="-426"/>
			<point x="182" y="-441" type="curve"/>
			<point x="167" y="-446"/>
			<point x="166" y="-447"/>
			<point x="161" y="-454" type="curve"/>
			<point x="155" y="-463"/>
			<point x="148" y="-496"/>
			<point x="147" y="-519" type="curve"/>
			<point x="146" y="-542"/>
			<point x="170" y="-560"/>
			<point x="189" y="-560" type="curve"/>
			<point x="200" y="-560"/>
			<point x="214" y="-549"/>
			<point x="222" y="-534" type="curve"/>
			<point x="228" y="-522"/>
			<point x="233" y="-499"/>
			<point x="238" y="-475" type="curve"/>
			<point x="239" y="-470"/>
			<point x="237" y="-469"/>
			<point x="232" y="-469" type="curve"/>
			<point x="224" y="-469"/>
			<point x="213" y="-477"/>
			<point x="186" y="-499" type="curve"/>
			<point x="170" y="-512"/>
			<point x="168" y="-514"/>
			<point x="162" y="-514" type="curve"/>
			<point x="154" y="-514"/>
			<point x="154" y="-514"/>
			<point x="154" y="-509" type="curve"/>
			<point x="154" y="-495"/>
			<point x="177" y="-469"/>
			<point x="201" y="-455" type="curve"/>
			<point x="231" y="-438"/>
			<point x="243" y="-435"/>
			<point x="259" y="-443" type="curve"/>
			<point x="276" y="-452"/>
			<point x="287" y="-466"/>
			<point x="291" y="-485" type="curve"/>
			<point x="293" y="-497"/>
			<point x="292" y="-518"/>
			<point x="288" y="-530" type="curve"/>
			<point x="281" y="-550"/>
			<point x="258" y="-574"/>
			<point x="236" y="-591" type="curve"/>
			<point x="227" y="-598"/>
			<point x="222" y="-602"/>
		</contour>
		<contour>
			<point x="214" y="-394" type="curve"/>
			<point x="214" y="-394" type="line"/>
			<point x="259" y="-378"/>
			<point x="301" y="-354"/>
			<point x="307" y="-316" type="curve"/>
			<point x="309" y="-304"/>
			<point x="299" y="-295"/>
			<point x="275" y="-291" type="curve"/>
			<point x="269" y="-290"/>
			<point x="269" y="-290"/>
			<point x="256" y="-305" type="curve"/>
			<point x="247" y="-316"/>
			<point x="193" y="-392"/>
			<point x="193" y="-397" type="curve"/>
			<point x="193" y="-400"/>
			<point x="200" y="-399"/>
		</contour>
	</outline>
</glyph>
<glyph name="three" format="2">
	<advance width="518"/>
	<unicode hex="0033"/>
	<outline>
		<contour>
			<point x="118" y="-552" type="curve"/>
			<point x="118" y="-552" type="line"/>
			<point x="109" y="-546"/>
			<point x="108" y="-542"/>
			<point x="116" y="-539" type="curve"/>
			<point x="122" y="-537"/>
			<point x="136" y="-528"/>
			<point x="148" y="-518" type="curve"/>
			<point x="168" y="-502"/>
			<point x="171" y="-493"/>
			<point x="171" y="-449" type="curve"/>
			<point x="171" y="-394"/>
			<point x="157" y="-361"/>
			<point x="122" y="-317" type="curve"/>
			<point x="80" y="-269"/>
			<point x="102" y="-248"/>
			<point x="161" y="-280" type="curve"/>
			<point x="199" y="-301"/>
			<point x="290" y="-328"/>
			<point x="318" y="-328" type="curve"/>
			<point x="327" y="-328"/>
			<point x="336" y="-317"/>
			<point x="342" y="-303" type="curve"/>
			<point x="354" y="-271"/>
			<point x="374" y="-262"/>
			<point x="395" y="-281" type="curve"/>
			<point x="417" y="-301"/>
			<point x="424" y="-332"/>
			<point x="414" y="-354" type="curve"/>
			<point x="402" y="-376"/>
			<point x="345" y="-377"/>
			<point x="274" y="-359" type="curve"/>
			<point x="250" y="-353"/>
			<point x="225" y="-347"/>
			<point x="221" y="-347" type="curve"/>
			<point x="217" y="-347"/>
			<point x="221" y="-363"/>
			<point x="229" y="-383" type="curve"/>
			<point x="244" y="-427"/>
			<point x="247" y="-499"/>
			<point x="233" y="-526" type="curve"/>
			<point x="217" y="-553"/>
			<point x="144" y="-571"/>
		</contour>
		<contour>
			<point x="118" y="-552" type="curve"/>
			<point x="118" y="-552" type="line"/>
			<point x="109" y="-546"/>
			<point x="108" y="-542"/>
			<point x="116" y="-539" type="curve"/>
			<point x="122" y="-537"/>
			<point x="136" y="-528"/>
			<point x="148" y="-518" type="curve"/>
			<point x="168" y="-502"/>
			<point x="171" y="-493"/>
			<point x="171" y="-449" type="curve"/>
			<point x="171" y="-394"/>
			<point x="157" y="-361"/>
			<point x="122" y="-317" type="curve"/>
			<point x="80" y="-269"/>
			<point x="102" y="-248"/>
			<point x="161" y="-280" type="curve"/>
			<point x="199" y="-301"/>
			<point x="290" y="-328"/>
			<point x="318" y="-328" type="curve"/>
			<point x="327" y="-328"/>
			<point x="336" y="-317"/>
			<point x="342" y="-303" type="curve"/>
			<point x="354" y="-271"/>
			<point x="374" y="-262"/>
			<point x="395" y="-281" type="curve"/>
			<point x="417" y="-301"/>
			<point x="424" y="-332"/>
			<point x="414" y="-354" type="curve"/>
			<point x="402" y="-376"/>
			<point x="345" y="-377"/>
			<point x="274" y="-359" type="curve"/>
			<point x="250" y="-353"/>
			<point x="225" y="-347"/>
			<point x="221" y="-347" type="curve"/>
			<point x="217" y="-347"/>
			<point x="221" y="-363"/>
			<point x="229" y="-383" type="curve"/>
			<point x="244" y="-427"/>
			<point x="247" y="-499"/>
			<point x="233" y="-526" type="curve"/>
			<point x="217" y="-553"/>
			<point x="144" y="-571"/>
		</contour>
	</outline>
</glyph>
<glyph name="four" format="2">
	<advance width="487"/>
	<unicode hex="0034"/>
	<outline>
		<contour>
			<point x="131" y="-535" type="line"/>
			<point x="116" y="-521" type="line"/>
			<point x="99" y="-505"/>
			<point x="97" y="-500"/>
			<point x="106" y="-493" type="curve"/>
			<point x="110" y="-489"/>
			<point x="116" y="-488"/>
			<point x="140" y="-487" type="curve"/>
			<point x="168" y="-486" type="line"/>
			<point x="213" y="-375" type="line"/>
			<point x="237" y="-314"/>
			<point x="258" y="-262"/>
			<point x="260" y="-258" type="curve"/>
			<point x="262" y="-254"/>
			<point x="266" y="-252"/>
			<point x="271" y="-252" type="curve"/>
			<point x="278" y="-252"/>
			<point x="280" y="-254"/>
			<point x="286" y="-265" type="curve"/>
			<point x="289" y="-272"/>
			<point x="301" y="-305"/>
			<point x="312" y="-338" type="curve"/>
			<point x="349" y="-452"/>
			<point x="360" y="-481"/>
			<point x="379" y="-513" type="curve"/>
			<point x="384" y="-521"/>
			<point x="387" y="-530"/>
			<point x="387" y="-532" type="curve"/>
			<point x="386" y="-535"/>
			<point x="363" y="-535"/>
			<point x="258" y="-535" type="curve"/>
		</contour>
		<contour>
			<point x="288" y="-470" type="curve"/>
			<point x="288" y="-470" type="line"/>
			<point x="289" y="-468"/>
			<point x="273" y="-378"/>
			<point x="271" y="-377" type="curve"/>
			<point x="267" y="-376"/>
			<point x="229" y="-459"/>
			<point x="229" y="-467" type="curve"/>
			<point x="229" y="-474" type="line"/>
			<point x="258" y="-471" type="line"/>
			<point x="273" y="-471"/>
			<point x="287" y="-470"/>
		</contour>
	</outline>
</glyph>
<glyph name="five" format="2">
	<advance width="435"/>
	<unicode hex="0035"/>
	<outline>
		<contour>
			<point x="108" y="-533" type="curve"/>
			<point x="108" y="-533" type="line"/>
			<point x="105" y="-531"/>
			<point x="102" y="-526"/>
			<point x="101" y="-522" type="curve"/>
			<point x="100" y="-517"/>
			<point x="101" y="-514"/>
			<point x="112" y="-499" type="curve"/>
			<point x="126" y="-479"/>
			<point x="138" y="-454"/>
			<point x="139" y="-444" type="curve"/>
			<point x="140" y="-439"/>
			<point x="136" y="-419"/>
			<point x="125" y="-373" type="curve"/>
			<point x="112" y="-322"/>
			<point x="109" y="-307"/>
			<point x="109" y="-296" type="curve"/>
			<point x="109" y="-282" type="line"/>
			<point x="117" y="-275" type="line"/>
			<point x="126" y="-266"/>
			<point x="145" y="-258"/>
			<point x="173" y="-252" type="curve"/>
			<point x="196" y="-248"/>
			<point x="197" y="-248"/>
			<point x="202" y="-253" type="curve"/>
			<point x="206" y="-257" type="line"/>
			<point x="201" y="-297" type="line"/>
			<point x="197" y="-326"/>
			<point x="196" y="-337"/>
			<point x="197" y="-341" type="curve"/>
			<point x="198" y="-343"/>
			<point x="199" y="-345"/>
			<point x="200" y="-345" type="curve"/>
			<point x="200" y="-345"/>
			<point x="232" y="-334"/>
			<point x="269" y="-321" type="curve"/>
			<point x="337" y="-297"/>
			<point x="339" y="-297"/>
			<point x="352" y="-297" type="curve"/>
			<point x="364" y="-298"/>
			<point x="365" y="-298"/>
			<point x="368" y="-303" type="curve"/>
			<point x="372" y="-310"/>
			<point x="376" y="-332"/>
			<point x="374" y="-341" type="curve"/>
			<point x="373" y="-348"/>
			<point x="365" y="-358"/>
			<point x="356" y="-362" type="curve"/>
			<point x="353" y="-364"/>
			<point x="344" y="-366"/>
			<point x="337" y="-367" type="curve"/>
			<point x="318" y="-369"/>
			<point x="212" y="-406"/>
			<point x="207" y="-412" type="curve"/>
			<point x="206" y="-412"/>
			<point x="206" y="-414"/>
			<point x="205" y="-416" type="curve"/>
			<point x="204" y="-420"/>
			<point x="205" y="-421"/>
			<point x="209" y="-422" type="curve"/>
			<point x="221" y="-427"/>
			<point x="259" y="-435"/>
			<point x="304" y="-443" type="curve"/>
			<point x="370" y="-453"/>
			<point x="371" y="-454"/>
			<point x="376" y="-460" type="curve"/>
			<point x="384" y="-471"/>
			<point x="386" y="-477"/>
			<point x="386" y="-492" type="curve"/>
			<point x="386" y="-505"/>
			<point x="386" y="-506"/>
			<point x="380" y="-511" type="curve"/>
			<point x="375" y="-516"/>
			<point x="373" y="-517"/>
			<point x="367" y="-517" type="curve"/>
			<point x="363" y="-517"/>
			<point x="328" y="-509"/>
			<point x="288" y="-500" type="curve"/>
			<point x="250" y="-491"/>
			<point x="218" y="-483"/>
			<point x="217" y="-483" type="curve"/>
			<point x="216" y="-483"/>
			<point x="215" y="-487"/>
			<point x="213" y="-492" type="curve"/>
			<point x="210" y="-505"/>
			<point x="197" y="-519"/>
			<point x="180" y="-527" type="curve"/>
			<point x="163" y="-535"/>
			<point x="149" y="-539"/>
			<point x="129" y="-539" type="curve"/>
			<point x="113" y="-539"/>
			<point x="112" y="-538"/>
		</contour>
	</outline>
</glyph>
<glyph name="six" format="2">
	<advance width="526"/>
	<unicode hex="0036"/>
	<outline>
		<contour>
			<point x="155" y="-529" type="curve"/>
			<point x="155" y="-529" type="line"/>
			<point x="141" y="-509"/>
			<point x="139" y="-500"/>
			<point x="146" y="-479" type="curve"/>
			<point x="155" y="-449"/>
			<point x="182" y="-406"/>
			<point x="226" y="-353" type="curve"/>
			<point x="242" y="-334" type="line"/>
			<point x="226" y="-333" type="line"/>
			<point x="145" y="-326"/>
			<point x="110" y="-318"/>
			<point x="102" y="-304" type="curve"/>
			<point x="100" y="-300"/>
			<point x="100" y="-299"/>
			<point x="103" y="-296" type="curve"/>
			<point x="106" y="-292"/>
			<point x="119" y="-287"/>
			<point x="135" y="-282" type="curve"/>
			<point x="144" y="-280"/>
			<point x="146" y="-278"/>
			<point x="153" y="-269" type="curve"/>
			<point x="161" y="-258"/>
			<point x="174" y="-249"/>
			<point x="180" y="-249" type="curve"/>
			<point x="183" y="-249"/>
			<point x="186" y="-251"/>
			<point x="189" y="-257" type="curve"/>
			<point x="191" y="-261"/>
			<point x="195" y="-266"/>
			<point x="199" y="-268" type="curve"/>
			<point x="210" y="-276"/>
			<point x="237" y="-278"/>
			<point x="261" y="-273" type="curve"/>
			<point x="290" y="-267"/>
			<point x="358" y="-265"/>
			<point x="379" y="-270" type="curve"/>
			<point x="389" y="-272"/>
			<point x="393" y="-274"/>
			<point x="399" y="-280" type="curve"/>
			<point x="408" y="-290"/>
			<point x="409" y="-296"/>
			<point x="402" y="-310" type="curve"/>
			<point x="395" y="-324"/>
			<point x="360" y="-358"/>
			<point x="329" y="-382" type="curve"/>
			<point x="292" y="-410"/>
			<point x="247" y="-454"/>
			<point x="247" y="-462" type="curve"/>
			<point x="247" y="-463"/>
			<point x="253" y="-461"/>
			<point x="259" y="-458" type="curve"/>
			<point x="285" y="-446"/>
			<point x="313" y="-443"/>
			<point x="336" y="-449" type="curve"/>
			<point x="358" y="-454"/>
			<point x="381" y="-471"/>
			<point x="401" y="-493" type="curve"/>
			<point x="411" y="-504"/>
			<point x="426" y="-525"/>
			<point x="426" y="-527" type="curve"/>
			<point x="426" y="-528"/>
			<point x="422" y="-530"/>
			<point x="417" y="-533" type="curve"/>
			<point x="406" y="-538"/>
			<point x="398" y="-538"/>
			<point x="356" y="-535" type="curve"/>
			<point x="328" y="-533" type="line"/>
			<point x="311" y="-524" type="line"/>
			<point x="271" y="-502"/>
			<point x="268" y="-502"/>
			<point x="210" y="-522" type="curve"/>
			<point x="186" y="-530"/>
			<point x="165" y="-537"/>
			<point x="164" y="-537" type="curve"/>
			<point x="163" y="-537"/>
			<point x="159" y="-533"/>
		</contour>
	</outline>
</glyph>
<glyph name="seven" format="2">
	<advance width="536"/>
	<unicode hex="0037"/>
	<outline>
		<contour>
			<point x="246" y="-482" type="curve"/>
			<point x="246" y="-482" type="line"/>
			<point x="204" y="-429"/>
			<point x="180" y="-377"/>
			<point x="180" y="-334" type="curve"/>
			<point x="180" y="-302" type="line"/>
			<point x="156" y="-325" type="line"/>
			<point x="128" y="-350"/>
			<point x="100" y="-346"/>
			<point x="100" y="-316" type="curve"/>
			<point x="100" y="-291"/>
			<point x="158" y="-255"/>
			<point x="198" y="-255" type="curve"/>
			<point x="227" y="-255"/>
			<point x="228" y="-257"/>
			<point x="239" y="-319" type="curve"/>
			<point x="253" y="-399"/>
			<point x="276" y="-465"/>
			<point x="283" y="-445" type="curve"/>
			<point x="317" y="-347"/>
			<point x="336" y="-301"/>
			<point x="356" y="-280" type="curve"/>
			<point x="383" y="-251"/>
			<point x="417" y="-250"/>
			<point x="433" y="-276" type="curve"/>
			<point x="441" y="-289"/>
			<point x="435" y="-300"/>
			<point x="407" y="-329" type="curve"/>
			<point x="386" y="-349"/>
			<point x="353" y="-402"/>
			<point x="332" y="-445" type="curve"/>
			<point x="311" y="-488"/>
			<point x="292" y="-525"/>
			<point x="288" y="-525" type="curve"/>
			<point x="284" y="-525"/>
			<point x="265" y="-506"/>
		</contour>
		<contour>
			<point x="246" y="-482" type="curve"/>
			<point x="246" y="-482" type="line"/>
			<point x="204" y="-429"/>
			<point x="180" y="-377"/>
			<point x="180" y="-334" type="curve"/>
			<point x="180" y="-302" type="line"/>
			<point x="156" y="-325" type="line"/>
			<point x="128" y="-350"/>
			<point x="100" y="-346"/>
			<point x="100" y="-316" type="curve"/>
			<point x="100" y="-291"/>
			<point x="158" y="-255"/>
			<point x="198" y="-255" type="curve"/>
			<point x="227" y="-255"/>
			<point x="228" y="-257"/>
			<point x="239" y="-319" type="curve"/>
			<point x="253" y="-399"/>
			<point x="276" y="-465"/>
			<point x="283" y="-445" type="curve"/>
			<point x="317" y="-347"/>
			<point x="336" y="-301"/>
			<point x="356" y="-280" type="curve"/>
			<point x="383" y="-251"/>
			<point x="417" y="-250"/>
			<point x="433" y="-276" type="curve"/>
			<point x="441" y="-289"/>
			<point x="435" y="-300"/>
			<point x="407" y="-329" type="curve"/>
			<point x="386" y="-349"/>
			<point x="353" y="-402"/>
			<point x="332" y="-445" type="curve"/>
			<point x="311" y="-488"/>
			<point x="292" y="-525"/>
			<point x="288" y="-525" type="curve"/>
			<point x="284" y="-525"/>
			<point x="265" y="-506"/>
		</contour>
	</outline>
</glyph>
<glyph name="O" format="2">
	<advance width="863"/>
	<unicode hex="004F"/>
	<outline>
		<contour>
			<point x="615" y="-54" type="curve"/>
			<point x="615" y="-54" type="line"/>
			<point x="608" y="-52"/>
			<point x="598" y="-47"/>
			<point x="592" y="-43" type="curve"/>
			<point x="575" y="-34"/>
			<point x="575" y="-28"/>
			<point x="592" y="-10" type="curve"/>
			<point x="605" y="5"/>
			<point x="615" y="19"/>
			<point x="615" y="22" type="curve"/>
			<point x="615" y="30"/>
			<point x="547" y="15"/>
			<point x="431" y="-19" type="curve"/>
			<point x="323" y="-51"/>
			<point x="327" y="-50"/>
			<point x="280" y="-52" type="curve"/>
			<point x="229" y="-54"/>
			<point x="210" y="-50"/>
			<point x="188" y="-33" type="curve"/>
			<point x="170" y="-18"/>
			<point x="164" y="-10"/>
			<point x="161" y="7" type="curve"/>
			<point x="158" y="22"/>
			<point x="158" y="25"/>
			<point x="161" y="36" type="curve"/>
			<point x="169" y="56"/>
			<point x="175" y="67"/>
			<point x="190" y="81" type="curve"/>
			<point x="205" y="96"/>
			<point x="225" y="104"/>
			<point x="250" y="108" type="curve"/>
			<point x="264" y="110"/>
			<point x="267" y="110"/>
			<point x="275" y="105" type="curve"/>
			<point x="281" y="103"/>
			<point x="288" y="98"/>
			<point x="291" y="93" type="curve"/>
			<point x="297" y="81"/>
			<point x="294" y="76"/>
			<point x="273" y="44" type="curve"/>
			<point x="247" y="10"/>
			<point x="248" y="7"/>
			<point x="286" y="7" type="curve"/>
			<point x="310" y="7"/>
			<point x="317" y="7"/>
			<point x="371" y="19" type="curve"/>
			<point x="401" y="29"/>
			<point x="449" y="41"/>
			<point x="475" y="48" type="curve"/>
			<point x="530" y="64"/>
			<point x="567" y="73"/>
			<point x="608" y="74" type="curve"/>
			<point x="634" y="75"/>
			<point x="639" y="75"/>
			<point x="651" y="70" type="curve"/>
			<point x="672" y="64"/>
			<point x="695" y="45"/>
			<point x="700" y="33" type="curve"/>
			<point x="706" y="19"/>
			<point x="702" y="-4"/>
			<point x="695" y="-16" type="curve"/>
			<point x="676" y="-45"/>
			<point x="639" y="-62"/>
		</contour>
		<component base="_part.apostrophoi" xOffset="175" yOffset="-226"/>
	</outline>
</glyph>
<glyph name="asciicircum" format="2">
	<advance width="0"/>
	<unicode hex="005E"/>
	<outline>
		<contour>
			<point x="-470" y="37" type="curve"/>
			<point x="-470" y="37" type="line"/>
			<point x="-484" y="57"/>
			<point x="-486" y="66"/>
			<point x="-479" y="87" type="curve"/>
			<point x="-470" y="117"/>
			<point x="-443" y="160"/>
			<point x="-399" y="213" type="curve"/>
			<point x="-383" y="232" type="line"/>
			<point x="-399" y="233" type="line"/>
			<point x="-480" y="240"/>
			<point x="-515" y="248"/>
			<point x="-523" y="262" type="curve"/>
			<point x="-525" y="266"/>
			<point x="-525" y="267"/>
			<point x="-522" y="270" type="curve"/>
			<point x="-519" y="274"/>
			<point x="-506" y="279"/>
			<point x="-490" y="284" type="curve"/>
			<point x="-481" y="286"/>
			<point x="-479" y="288"/>
			<point x="-472" y="297" type="curve"/>
			<point x="-464" y="308"/>
			<point x="-451" y="317"/>
			<point x="-445" y="317" type="curve"/>
			<point x="-442" y="317"/>
			<point x="-439" y="315"/>
			<point x="-436" y="309" type="curve"/>
			<point x="-434" y="305"/>
			<point x="-430" y="300"/>
			<point x="-426" y="298" type="curve"/>
			<point x="-415" y="290"/>
			<point x="-388" y="288"/>
			<point x="-364" y="293" type="curve"/>
			<point x="-335" y="299"/>
			<point x="-267" y="301"/>
			<point x="-246" y="296" type="curve"/>
			<point x="-236" y="294"/>
			<point x="-232" y="292"/>
			<point x="-226" y="286" type="curve"/>
			<point x="-217" y="276"/>
			<point x="-216" y="270"/>
			<point x="-223" y="256" type="curve"/>
			<point x="-230" y="242"/>
			<point x="-265" y="208"/>
			<point x="-296" y="184" type="curve"/>
			<point x="-333" y="156"/>
			<point x="-378" y="112"/>
			<point x="-378" y="104" type="curve"/>
			<point x="-378" y="103"/>
			<point x="-372" y="105"/>
			<point x="-366" y="108" type="curve"/>
			<point x="-340" y="120"/>
			<point x="-312" y="123"/>
			<point x="-289" y="117" type="curve"/>
			<point x="-267" y="112"/>
			<point x="-244" y="95"/>
			<point x="-224" y="73" type="curve"/>
			<point x="-214" y="62"/>
			<point x="-199" y="41"/>
			<point x="-199" y="39" type="curve"/>
			<point x="-199" y="38"/>
			<point x="-203" y="36"/>
			<point x="-208" y="33" type="curve"/>
			<point x="-219" y="28"/>
			<point x="-227" y="28"/>
			<point x="-269" y="31" type="curve"/>
			<point x="-297" y="33" type="line"/>
			<point x="-314" y="42" type="line"/>
			<point x="-354" y="64"/>
			<point x="-357" y="64"/>
			<point x="-415" y="44" type="curve"/>
			<point x="-439" y="36"/>
			<point x="-460" y="29"/>
			<point x="-461" y="29" type="curve"/>
			<point x="-462" y="29"/>
			<point x="-466" y="33"/>
		</contour>
	</outline>
</glyph>
<glyph name="a" format="2">
	<advance width="675"/>
	<unicode hex="0061"/>
	<outline>
		<contour>
			<point x="462" y="-289" type="curve"/>
			<point x="462" y="-289" type="line"/>
			<point x="456" y="-287"/>
			<point x="448" y="-283"/>
			<point x="443" y="-280" type="curve"/>
			<point x="429" y="-272"/>
			<point x="429" y="-267"/>
			<point x="443" y="-252" type="curve"/>
			<point x="454" y="-240"/>
			<point x="462" y="-228"/>
			<point x="462" y="-226" type="curve"/>
			<point x="462" y="-219"/>
			<point x="406" y="-232"/>
			<point x="310" y="-260" type="curve"/>
			<point x="221" y="-286"/>
			<point x="224" y="-285"/>
			<point x="185" y="-287" type="curve"/>
			<point x="143" y="-289"/>
			<point x="127" y="-285"/>
			<point x="109" y="-271" type="curve"/>
			<point x="94" y="-259"/>
			<point x="89" y="-252"/>
			<point x="87" y="-238" type="curve"/>
			<point x="84" y="-226"/>
			<point x="84" y="-223"/>
			<point x="87" y="-214" type="curve"/>
			<point x="93" y="-198"/>
			<point x="98" y="-189"/>
			<point x="111" y="-177" type="curve"/>
			<point x="123" y="-165"/>
			<point x="140" y="-158"/>
			<point x="160" y="-155" type="curve"/>
			<point x="172" y="-153"/>
			<point x="174" y="-153"/>
			<point x="181" y="-157" type="curve"/>
			<point x="186" y="-159"/>
			<point x="192" y="-163"/>
			<point x="194" y="-167" type="curve"/>
			<point x="199" y="-177"/>
			<point x="197" y="-181"/>
			<point x="179" y="-208" type="curve"/>
			<point x="158" y="-236"/>
			<point x="159" y="-238"/>
			<point x="190" y="-238" type="curve"/>
			<point x="210" y="-238"/>
			<point x="216" y="-238"/>
			<point x="260" y="-228" type="curve"/>
			<point x="285" y="-220"/>
			<point x="325" y="-210"/>
			<point x="346" y="-204" type="curve"/>
			<point x="392" y="-191"/>
			<point x="422" y="-184"/>
			<point x="456" y="-183" type="curve"/>
			<point x="478" y="-182"/>
			<point x="482" y="-182"/>
			<point x="492" y="-186" type="curve"/>
			<point x="509" y="-191"/>
			<point x="528" y="-207"/>
			<point x="532" y="-217" type="curve"/>
			<point x="537" y="-228"/>
			<point x="534" y="-247"/>
			<point x="528" y="-257" type="curve"/>
			<point x="512" y="-281"/>
			<point x="482" y="-295"/>
		</contour>
	</outline>
</glyph>
<glyph name="b" format="2">
	<advance width="802"/>
	<unicode hex="0062"/>
	<outline>
		<contour>
			<point x="301" y="-248" type="curve"/>
			<point x="301" y="-248" type="line"/>
			<point x="301" y="-247"/>
			<point x="300" y="-245"/>
			<point x="300" y="-242" type="curve"/>
			<point x="300" y="-239"/>
			<point x="322" y="-178"/>
			<point x="349" y="-107" type="curve"/>
			<point x="397" y="24" type="line"/>
			<point x="390" y="37" type="line"/>
			<point x="379" y="58"/>
			<point x="353" y="96"/>
			<point x="342" y="108" type="curve"/>
			<point x="329" y="121"/>
			<point x="318" y="128"/>
			<point x="308" y="130" type="curve"/>
			<point x="300" y="131"/>
			<point x="298" y="135"/>
			<point x="298" y="148" type="curve"/>
			<point x="298" y="162"/>
			<point x="301" y="170"/>
			<point x="311" y="179" type="curve"/>
			<point x="319" y="188"/>
			<point x="334" y="194"/>
			<point x="346" y="195" type="curve"/>
			<point x="353" y="196" type="line"/>
			<point x="386" y="155" type="line"/>
			<point x="416" y="120"/>
			<point x="421" y="115"/>
			<point x="426" y="115" type="curve"/>
			<point x="431" y="114"/>
			<point x="432" y="115"/>
			<point x="437" y="126" type="curve"/>
			<point x="440" y="133"/>
			<point x="449" y="152"/>
			<point x="457" y="168" type="curve"/>
			<point x="472" y="198"/>
			<point x="485" y="218"/>
			<point x="492" y="222" type="curve"/>
			<point x="494" y="223"/>
			<point x="501" y="223"/>
			<point x="509" y="223" type="curve"/>
			<point x="523" y="222" type="line"/>
			<point x="525" y="215" type="line"/>
			<point x="528" y="208" type="line"/>
			<point x="506" y="179" type="line"/>
			<point x="487" y="153"/>
			<point x="483" y="147"/>
			<point x="473" y="124" type="curve"/>
			<point x="459" y="93"/>
			<point x="457" y="86"/>
			<point x="458" y="68" type="curve"/>
			<point x="458" y="56"/>
			<point x="460" y="52"/>
			<point x="468" y="35" type="curve"/>
			<point x="473" y="24"/>
			<point x="481" y="8"/>
			<point x="486" y="0" type="curve"/>
			<point x="495" y="-17"/>
			<point x="522" y="-81"/>
			<point x="534" y="-118" type="curve"/>
			<point x="546" y="-154"/>
			<point x="551" y="-172"/>
			<point x="552" y="-190" type="curve"/>
			<point x="553" y="-210"/>
			<point x="551" y="-215"/>
			<point x="537" y="-223" type="curve"/>
			<point x="526" y="-230"/>
			<point x="516" y="-231"/>
			<point x="513" y="-226" type="curve"/>
			<point x="512" y="-224"/>
			<point x="500" y="-194"/>
			<point x="487" y="-159" type="curve"/>
			<point x="467" y="-107"/>
			<point x="459" y="-89"/>
			<point x="442" y="-55" type="curve"/>
			<point x="430" y="-33"/>
			<point x="420" y="-14"/>
			<point x="419" y="-14" type="curve"/>
			<point x="419" y="-14"/>
			<point x="400" y="-65"/>
			<point x="379" y="-128" type="curve"/>
			<point x="340" y="-243" type="line"/>
			<point x="328" y="-244" type="line"/>
			<point x="321" y="-244"/>
			<point x="313" y="-246"/>
			<point x="310" y="-247" type="curve"/>
			<point x="304" y="-249"/>
			<point x="303" y="-250"/>
		</contour>
		<contour>
			<point x="312" y="239" type="curve"/>
			<point x="312" y="239" type="line"/>
			<point x="305" y="241"/>
			<point x="298" y="245"/>
			<point x="295" y="248" type="curve"/>
			<point x="290" y="253" type="line"/>
			<point x="294" y="309" type="line"/>
			<point x="297" y="340"/>
			<point x="299" y="367"/>
			<point x="299" y="369" type="curve"/>
			<point x="299" y="372"/>
			<point x="296" y="372"/>
			<point x="255" y="372" type="curve"/>
			<point x="230" y="372"/>
			<point x="203" y="371"/>
			<point x="194" y="370" type="curve"/>
			<point x="145" y="365"/>
			<point x="133" y="366"/>
			<point x="124" y="375" type="curve"/>
			<point x="120" y="379"/>
			<point x="119" y="380"/>
			<point x="120" y="391" type="curve"/>
			<point x="122" y="404"/>
			<point x="125" y="412"/>
			<point x="133" y="417" type="curve"/>
			<point x="137" y="421"/>
			<point x="140" y="421"/>
			<point x="153" y="420" type="curve"/>
			<point x="182" y="419"/>
			<point x="274" y="419"/>
			<point x="330" y="421" type="curve"/>
			<point x="386" y="423" type="line"/>
			<point x="389" y="418" type="line"/>
			<point x="394" y="412"/>
			<point x="393" y="400"/>
			<point x="386" y="387" type="curve"/>
			<point x="379" y="370"/>
			<point x="374" y="347"/>
			<point x="372" y="311" type="curve"/>
			<point x="370" y="267"/>
			<point x="365" y="254"/>
			<point x="345" y="240" type="curve"/>
			<point x="334" y="233"/>
			<point x="328" y="233"/>
		</contour>
		<contour>
			<point x="490" y="239" type="curve"/>
			<point x="490" y="239" type="line"/>
			<point x="474" y="233"/>
			<point x="468" y="233"/>
			<point x="457" y="240" type="curve"/>
			<point x="437" y="254"/>
			<point x="432" y="267"/>
			<point x="430" y="311" type="curve"/>
			<point x="428" y="347"/>
			<point x="423" y="370"/>
			<point x="416" y="387" type="curve"/>
			<point x="409" y="400"/>
			<point x="408" y="412"/>
			<point x="413" y="418" type="curve"/>
			<point x="416" y="423" type="line"/>
			<point x="472" y="421" type="line"/>
			<point x="528" y="419"/>
			<point x="620" y="419"/>
			<point x="649" y="420" type="curve"/>
			<point x="662" y="421"/>
			<point x="665" y="421"/>
			<point x="669" y="417" type="curve"/>
			<point x="677" y="412"/>
			<point x="680" y="404"/>
			<point x="682" y="391" type="curve"/>
			<point x="683" y="380"/>
			<point x="682" y="379"/>
			<point x="678" y="375" type="curve"/>
			<point x="669" y="366"/>
			<point x="657" y="365"/>
			<point x="608" y="370" type="curve"/>
			<point x="599" y="371"/>
			<point x="572" y="372"/>
			<point x="547" y="372" type="curve"/>
			<point x="506" y="372"/>
			<point x="503" y="372"/>
			<point x="503" y="369" type="curve"/>
			<point x="503" y="367"/>
			<point x="505" y="340"/>
			<point x="508" y="309" type="curve"/>
			<point x="512" y="253" type="line"/>
			<point x="507" y="248" type="line"/>
			<point x="504" y="245"/>
			<point x="497" y="241"/>
		</contour>
	</outline>
</glyph>
<glyph name="c" format="2">
	<advance width="593"/>
	<unicode hex="0063"/>
	<outline>
		<contour>
			<point x="222" y="-248" type="curve"/>
			<point x="222" y="-248" type="line"/>
			<point x="222" y="-247"/>
			<point x="221" y="-245"/>
			<point x="221" y="-242" type="curve"/>
			<point x="221" y="-239"/>
			<point x="243" y="-178"/>
			<point x="270" y="-107" type="curve"/>
			<point x="318" y="24" type="line"/>
			<point x="311" y="37" type="line"/>
			<point x="300" y="58"/>
			<point x="274" y="96"/>
			<point x="263" y="108" type="curve"/>
			<point x="250" y="121"/>
			<point x="239" y="128"/>
			<point x="229" y="130" type="curve"/>
			<point x="221" y="131"/>
			<point x="219" y="135"/>
			<point x="219" y="148" type="curve"/>
			<point x="219" y="162"/>
			<point x="222" y="170"/>
			<point x="232" y="179" type="curve"/>
			<point x="240" y="188"/>
			<point x="255" y="194"/>
			<point x="267" y="195" type="curve"/>
			<point x="274" y="196" type="line"/>
			<point x="307" y="155" type="line"/>
			<point x="337" y="120"/>
			<point x="342" y="115"/>
			<point x="347" y="115" type="curve"/>
			<point x="352" y="114"/>
			<point x="353" y="115"/>
			<point x="358" y="126" type="curve"/>
			<point x="361" y="133"/>
			<point x="370" y="152"/>
			<point x="378" y="168" type="curve"/>
			<point x="393" y="198"/>
			<point x="406" y="218"/>
			<point x="413" y="222" type="curve"/>
			<point x="415" y="223"/>
			<point x="422" y="223"/>
			<point x="430" y="223" type="curve"/>
			<point x="444" y="222" type="line"/>
			<point x="446" y="215" type="line"/>
			<point x="449" y="208" type="line"/>
			<point x="427" y="179" type="line"/>
			<point x="408" y="153"/>
			<point x="404" y="147"/>
			<point x="394" y="124" type="curve"/>
			<point x="380" y="93"/>
			<point x="378" y="86"/>
			<point x="379" y="68" type="curve"/>
			<point x="379" y="56"/>
			<point x="381" y="52"/>
			<point x="389" y="35" type="curve"/>
			<point x="394" y="24"/>
			<point x="402" y="8"/>
			<point x="407" y="0" type="curve"/>
			<point x="416" y="-17"/>
			<point x="443" y="-81"/>
			<point x="455" y="-118" type="curve"/>
			<point x="467" y="-154"/>
			<point x="472" y="-172"/>
			<point x="473" y="-190" type="curve"/>
			<point x="474" y="-210"/>
			<point x="472" y="-215"/>
			<point x="458" y="-223" type="curve"/>
			<point x="447" y="-230"/>
			<point x="437" y="-231"/>
			<point x="434" y="-226" type="curve"/>
			<point x="433" y="-224"/>
			<point x="421" y="-194"/>
			<point x="408" y="-159" type="curve"/>
			<point x="388" y="-107"/>
			<point x="380" y="-89"/>
			<point x="363" y="-55" type="curve"/>
			<point x="351" y="-33"/>
			<point x="341" y="-14"/>
			<point x="340" y="-14" type="curve"/>
			<point x="340" y="-14"/>
			<point x="321" y="-65"/>
			<point x="300" y="-128" type="curve"/>
			<point x="261" y="-243" type="line"/>
			<point x="249" y="-244" type="line"/>
			<point x="242" y="-244"/>
			<point x="234" y="-246"/>
			<point x="231" y="-247" type="curve"/>
			<point x="225" y="-249"/>
			<point x="224" y="-250"/>
		</contour>
		<contour>
			<point x="392" y="413" type="curve"/>
			<point x="392" y="413" type="line"/>
			<point x="392" y="419"/>
			<point x="391" y="420"/>
			<point x="388" y="423" type="curve"/>
			<point x="379" y="432"/>
			<point x="367" y="433"/>
			<point x="318" y="428" type="curve"/>
			<point x="309" y="427"/>
			<point x="282" y="426"/>
			<point x="257" y="426" type="curve"/>
			<point x="216" y="426"/>
			<point x="213" y="426"/>
			<point x="213" y="429" type="curve"/>
			<point x="213" y="431"/>
			<point x="215" y="458"/>
			<point x="218" y="489" type="curve"/>
			<point x="222" y="545" type="line"/>
			<point x="217" y="550" type="line" smooth="yes"/>
			<point x="214" y="553"/>
			<point x="207" y="557"/>
			<point x="200" y="559" type="curve"/>
			<point x="184" y="565"/>
			<point x="178" y="565"/>
			<point x="167" y="558" type="curve"/>
			<point x="147" y="544"/>
			<point x="142" y="531"/>
			<point x="140" y="487" type="curve"/>
			<point x="138" y="451"/>
			<point x="133" y="428"/>
			<point x="126" y="411" type="curve"/>
			<point x="120" y="401"/>
			<point x="119" y="391"/>
			<point x="121" y="385" type="curve"/>
			<point x="121" y="379"/>
			<point x="122" y="378"/>
			<point x="125" y="375" type="curve"/>
			<point x="134" y="366"/>
			<point x="146" y="365"/>
			<point x="195" y="370" type="curve"/>
			<point x="204" y="371"/>
			<point x="231" y="372"/>
			<point x="256" y="372" type="curve"/>
			<point x="297" y="372"/>
			<point x="300" y="372"/>
			<point x="300" y="369" type="curve"/>
			<point x="300" y="367"/>
			<point x="298" y="340"/>
			<point x="295" y="309" type="curve"/>
			<point x="291" y="253" type="line"/>
			<point x="296" y="248" type="line" smooth="yes"/>
			<point x="299" y="245"/>
			<point x="306" y="241"/>
			<point x="313" y="239" type="curve"/>
			<point x="329" y="233"/>
			<point x="335" y="233"/>
			<point x="346" y="240" type="curve"/>
			<point x="366" y="254"/>
			<point x="371" y="267"/>
			<point x="373" y="311" type="curve"/>
			<point x="375" y="347"/>
			<point x="380" y="370"/>
			<point x="387" y="387" type="curve"/>
			<point x="393" y="397"/>
			<point x="394" y="407"/>
		</contour>
	</outline>
</glyph>
<glyph name="d" format="2">
	<advance width="675"/>
	<unicode hex="0064"/>
	<outline>
		<contour>
			<point x="462" y="-399" type="curve"/>
			<point x="462" y="-399" type="line"/>
			<point x="456" y="-397"/>
			<point x="448" y="-393"/>
			<point x="443" y="-390" type="curve"/>
			<point x="429" y="-382"/>
			<point x="429" y="-377"/>
			<point x="443" y="-362" type="curve"/>
			<point x="454" y="-350"/>
			<point x="462" y="-338"/>
			<point x="462" y="-336" type="curve"/>
			<point x="462" y="-329"/>
			<point x="406" y="-342"/>
			<point x="310" y="-370" type="curve"/>
			<point x="221" y="-396"/>
			<point x="224" y="-395"/>
			<point x="185" y="-397" type="curve"/>
			<point x="143" y="-399"/>
			<point x="127" y="-395"/>
			<point x="109" y="-381" type="curve"/>
			<point x="94" y="-369"/>
			<point x="89" y="-362"/>
			<point x="87" y="-348" type="curve"/>
			<point x="84" y="-336"/>
			<point x="84" y="-333"/>
			<point x="87" y="-324" type="curve"/>
			<point x="93" y="-308"/>
			<point x="98" y="-299"/>
			<point x="111" y="-287" type="curve"/>
			<point x="123" y="-275"/>
			<point x="140" y="-268"/>
			<point x="160" y="-265" type="curve"/>
			<point x="172" y="-263"/>
			<point x="174" y="-263"/>
			<point x="181" y="-267" type="curve"/>
			<point x="186" y="-269"/>
			<point x="192" y="-273"/>
			<point x="194" y="-277" type="curve"/>
			<point x="199" y="-287"/>
			<point x="197" y="-291"/>
			<point x="179" y="-318" type="curve"/>
			<point x="158" y="-346"/>
			<point x="159" y="-348"/>
			<point x="190" y="-348" type="curve"/>
			<point x="210" y="-348"/>
			<point x="216" y="-348"/>
			<point x="260" y="-338" type="curve"/>
			<point x="285" y="-330"/>
			<point x="325" y="-320"/>
			<point x="346" y="-314" type="curve"/>
			<point x="392" y="-301"/>
			<point x="422" y="-294"/>
			<point x="456" y="-293" type="curve"/>
			<point x="478" y="-292"/>
			<point x="482" y="-292"/>
			<point x="492" y="-296" type="curve"/>
			<point x="509" y="-301"/>
			<point x="528" y="-317"/>
			<point x="532" y="-327" type="curve"/>
			<point x="537" y="-338"/>
			<point x="534" y="-357"/>
			<point x="528" y="-367" type="curve"/>
			<point x="512" y="-391"/>
			<point x="482" y="-405"/>
		</contour>
		<component base="_part.apostrophoi" xScale="0.8" yScale="0.8" xOffset="110" yOffset="-540"/>
	</outline>
</glyph>
<glyph name="e" format="2">
	<advance width="704"/>
	<unicode hex="0065"/>
	<outline>
		<contour>
			<point x="285" y="-450" type="curve"/>
			<point x="285" y="-450" type="line"/>
			<point x="259" y="-442"/>
			<point x="235" y="-412"/>
			<point x="230" y="-375" type="curve"/>
			<point x="227" y="-351"/>
			<point x="229" y="-315"/>
			<point x="247" y="-274" type="curve"/>
			<point x="258" y="-249"/>
			<point x="265" y="-236"/>
			<point x="255" y="-228" type="curve"/>
			<point x="240" y="-216"/>
			<point x="200" y="-209"/>
			<point x="183" y="-218" type="curve"/>
			<point x="166" y="-227"/>
			<point x="159" y="-240"/>
			<point x="169" y="-264" type="curve"/>
			<point x="176" y="-281"/>
			<point x="175" y="-283"/>
			<point x="170" y="-291" type="curve"/>
			<point x="166" y="-298"/>
			<point x="160" y="-300"/>
			<point x="145" y="-300" type="curve"/>
			<point x="113" y="-300"/>
			<point x="100" y="-287"/>
			<point x="100" y="-255" type="curve"/>
			<point x="100" y="-200"/>
			<point x="139" y="-159"/>
			<point x="191" y="-159" type="curve"/>
			<point x="241" y="-159"/>
			<point x="284" y="-179"/>
			<point x="301" y="-208" type="curve"/>
			<point x="308" y="-220"/>
			<point x="311" y="-227"/>
			<point x="311" y="-254" type="curve"/>
			<point x="311" y="-280"/>
			<point x="306" y="-292"/>
			<point x="284" y="-336" type="curve"/>
			<point x="279" y="-346"/>
			<point x="275" y="-357"/>
			<point x="275" y="-364" type="curve"/>
			<point x="275" y="-383"/>
			<point x="301" y="-409"/>
			<point x="340" y="-419" type="curve"/>
			<point x="370" y="-426"/>
			<point x="355" y="-443"/>
			<point x="324" y="-450" type="curve"/>
			<point x="301" y="-455"/>
			<point x="298" y="-454"/>
		</contour>
		<contour>
			<point x="550" y="-450" type="curve"/>
			<point x="550" y="-450" type="line"/>
			<point x="524" y="-442"/>
			<point x="500" y="-412"/>
			<point x="495" y="-375" type="curve"/>
			<point x="492" y="-351"/>
			<point x="494" y="-315"/>
			<point x="512" y="-274" type="curve"/>
			<point x="523" y="-249"/>
			<point x="530" y="-236"/>
			<point x="520" y="-228" type="curve"/>
			<point x="505" y="-216"/>
			<point x="465" y="-209"/>
			<point x="448" y="-218" type="curve"/>
			<point x="431" y="-227"/>
			<point x="424" y="-240"/>
			<point x="434" y="-264" type="curve"/>
			<point x="441" y="-281"/>
			<point x="440" y="-283"/>
			<point x="435" y="-291" type="curve"/>
			<point x="431" y="-298"/>
			<point x="425" y="-300"/>
			<point x="410" y="-300" type="curve"/>
			<point x="378" y="-300"/>
			<point x="365" y="-287"/>
			<point x="365" y="-255" type="curve"/>
			<point x="365" y="-200"/>
			<point x="404" y="-159"/>
			<point x="456" y="-159" type="curve"/>
			<point x="506" y="-159"/>
			<point x="549" y="-179"/>
			<point x="566" y="-208" type="curve"/>
			<point x="573" y="-220"/>
			<point x="576" y="-227"/>
			<point x="576" y="-254" type="curve"/>
			<point x="576" y="-280"/>
			<point x="571" y="-292"/>
			<point x="549" y="-336" type="curve"/>
			<point x="544" y="-346"/>
			<point x="540" y="-357"/>
			<point x="540" y="-364" type="curve"/>
			<point x="540" y="-383"/>
			<point x="566" y="-409"/>
			<point x="605" y="-419" type="curve"/>
			<point x="635" y="-427"/>
			<point x="620" y="-443"/>
			<point x="589" y="-450" type="curve"/>
			<point x="566" y="-455"/>
			<point x="563" y="-454"/>
		</contour>
	</outline>
</glyph>
<glyph name="f" format="2">
	<advance width="607"/>
	<unicode hex="0066"/>
	<outline>
		<contour>
			<point x="78" y="-436" type="curve"/>
			<point x="78" y="-436" type="line"/>
			<point x="69" y="-428"/>
			<point x="65" y="-421"/>
			<point x="65" y="-415" type="curve"/>
			<point x="65" y="-408"/>
			<point x="88" y="-385"/>
			<point x="118" y="-361" type="curve"/>
			<point x="145" y="-340" type="line"/>
			<point x="139" y="-329" type="line"/>
			<point x="133" y="-316"/>
			<point x="130" y="-296"/>
			<point x="134" y="-284" type="curve"/>
			<point x="142" y="-263"/>
			<point x="164" y="-243"/>
			<point x="192" y="-234" type="curve"/>
			<point x="209" y="-228"/>
			<point x="252" y="-225"/>
			<point x="274" y="-228" type="curve"/>
			<point x="287" y="-229"/>
			<point x="289" y="-228"/>
			<point x="297" y="-223" type="curve"/>
			<point x="302" y="-219"/>
			<point x="308" y="-214"/>
			<point x="310" y="-210" type="curve"/>
			<point x="314" y="-204" type="line"/>
			<point x="293" y="-190" type="line"/>
			<point x="280" y="-183"/>
			<point x="270" y="-175"/>
			<point x="270" y="-174" type="curve"/>
			<point x="268" y="-170"/>
			<point x="272" y="-165"/>
			<point x="279" y="-159" type="curve"/>
			<point x="284" y="-155"/>
			<point x="284" y="-155"/>
			<point x="295" y="-159" type="curve"/>
			<point x="302" y="-161"/>
			<point x="312" y="-168"/>
			<point x="319" y="-171" type="curve"/>
			<point x="325" y="-176"/>
			<point x="333" y="-180"/>
			<point x="334" y="-180" type="curve"/>
			<point x="335" y="-180"/>
			<point x="343" y="-173"/>
			<point x="352" y="-165" type="curve"/>
			<point x="373" y="-145"/>
			<point x="380" y="-143"/>
			<point x="393" y="-149" type="curve"/>
			<point x="420" y="-163"/>
			<point x="419" y="-171"/>
			<point x="385" y="-195" type="curve"/>
			<point x="372" y="-205"/>
			<point x="369" y="-210"/>
			<point x="378" y="-218" type="curve"/>
			<point x="408" y="-243"/>
			<point x="414" y="-250"/>
			<point x="408" y="-256" type="curve"/>
			<point x="403" y="-264"/>
			<point x="394" y="-260"/>
			<point x="373" y="-245" type="curve"/>
			<point x="362" y="-236"/>
			<point x="352" y="-229"/>
			<point x="350" y="-228" type="curve"/>
			<point x="348" y="-226"/>
			<point x="327" y="-236"/>
			<point x="323" y="-241" type="curve"/>
			<point x="320" y="-244"/>
			<point x="323" y="-248"/>
			<point x="329" y="-255" type="curve"/>
			<point x="334" y="-261"/>
			<point x="340" y="-271"/>
			<point x="344" y="-278" type="curve"/>
			<point x="349" y="-289"/>
			<point x="350" y="-291"/>
			<point x="348" y="-301" type="curve"/>
			<point x="340" y="-333"/>
			<point x="298" y="-360"/>
			<point x="245" y="-368" type="curve"/>
			<point x="232" y="-370"/>
			<point x="227" y="-370"/>
			<point x="209" y="-365" type="curve"/>
			<point x="198" y="-363"/>
			<point x="187" y="-359"/>
			<point x="183" y="-356" type="curve"/>
			<point x="178" y="-353" type="line"/>
			<point x="152" y="-380" type="line"/>
			<point x="113" y="-421"/>
			<point x="90" y="-444"/>
			<point x="88" y="-444" type="curve"/>
			<point x="85" y="-444"/>
			<point x="82" y="-440"/>
		</contour>
		<contour>
			<point x="249" y="-333" type="curve"/>
			<point x="249" y="-333" type="line"/>
			<point x="270" y="-323"/>
			<point x="280" y="-309"/>
			<point x="280" y="-294" type="curve"/>
			<point x="280" y="-274"/>
			<point x="267" y="-259"/>
			<point x="243" y="-256" type="curve"/>
			<point x="233" y="-255"/>
			<point x="230" y="-256"/>
			<point x="218" y="-265" type="curve"/>
			<point x="198" y="-278"/>
			<point x="194" y="-289"/>
			<point x="200" y="-310" type="curve"/>
			<point x="209" y="-333"/>
			<point x="230" y="-343"/>
		</contour>
	</outline>
</glyph>
<glyph name="g" format="2">
	<advance width="623"/>
	<unicode hex="0067"/>
	<outline>
		<contour>
			<point x="93" y="-447" type="curve"/>
			<point x="93" y="-447" type="line"/>
			<point x="82" y="-444"/>
			<point x="70" y="-435"/>
			<point x="70" y="-432" type="curve"/>
			<point x="70" y="-429"/>
			<point x="80" y="-419"/>
			<point x="92" y="-408" type="curve"/>
			<point x="115" y="-389" type="line"/>
			<point x="101" y="-380" type="line"/>
			<point x="95" y="-375"/>
			<point x="83" y="-370"/>
			<point x="77" y="-368" type="curve"/>
			<point x="65" y="-363"/>
			<point x="60" y="-354"/>
			<point x="67" y="-348" type="curve"/>
			<point x="70" y="-345"/>
			<point x="73" y="-343"/>
			<point x="76" y="-343" type="curve"/>
			<point x="78" y="-343"/>
			<point x="93" y="-349"/>
			<point x="108" y="-357" type="curve"/>
			<point x="123" y="-364"/>
			<point x="136" y="-369"/>
			<point x="137" y="-369" type="curve"/>
			<point x="138" y="-369"/>
			<point x="145" y="-365"/>
			<point x="152" y="-362" type="curve"/>
			<point x="163" y="-353" type="line"/>
			<point x="150" y="-338" type="line"/>
			<point x="126" y="-315"/>
			<point x="122" y="-303"/>
			<point x="131" y="-284" type="curve"/>
			<point x="136" y="-272"/>
			<point x="156" y="-254"/>
			<point x="175" y="-244" type="curve"/>
			<point x="195" y="-233"/>
			<point x="227" y="-223"/>
			<point x="246" y="-220" type="curve"/>
			<point x="261" y="-218"/>
			<point x="293" y="-219"/>
			<point x="298" y="-223" type="curve"/>
			<point x="300" y="-224"/>
			<point x="312" y="-214"/>
			<point x="331" y="-195" type="curve"/>
			<point x="366" y="-162"/>
			<point x="395" y="-137"/>
			<point x="401" y="-137" type="curve"/>
			<point x="406" y="-137"/>
			<point x="427" y="-157"/>
			<point x="430" y="-163" type="curve"/>
			<point x="431" y="-170"/>
			<point x="422" y="-179"/>
			<point x="382" y="-209" type="curve"/>
			<point x="363" y="-224"/>
			<point x="346" y="-237"/>
			<point x="345" y="-238" type="curve"/>
			<point x="343" y="-239"/>
			<point x="348" y="-245"/>
			<point x="355" y="-254" type="curve"/>
			<point x="363" y="-267"/>
			<point x="366" y="-270"/>
			<point x="366" y="-279" type="curve"/>
			<point x="366" y="-305"/>
			<point x="351" y="-324"/>
			<point x="322" y="-338" type="curve"/>
			<point x="287" y="-355"/>
			<point x="261" y="-360"/>
			<point x="215" y="-360" type="curve"/>
			<point x="200" y="-360"/>
			<point x="200" y="-360"/>
			<point x="187" y="-372" type="curve"/>
			<point x="181" y="-379"/>
			<point x="176" y="-384"/>
			<point x="176" y="-385" type="curve"/>
			<point x="176" y="-387"/>
			<point x="183" y="-389"/>
			<point x="193" y="-393" type="curve"/>
			<point x="220" y="-402"/>
			<point x="232" y="-408"/>
			<point x="233" y="-413" type="curve"/>
			<point x="235" y="-419"/>
			<point x="221" y="-430"/>
			<point x="212" y="-430" type="curve"/>
			<point x="207" y="-430"/>
			<point x="196" y="-427"/>
			<point x="186" y="-422" type="curve"/>
			<point x="155" y="-408"/>
			<point x="158" y="-408"/>
			<point x="143" y="-424" type="curve"/>
			<point x="128" y="-440"/>
			<point x="115" y="-450"/>
			<point x="107" y="-450" type="curve"/>
			<point x="105" y="-450"/>
			<point x="98" y="-449"/>
		</contour>
		<contour>
			<point x="252" y="-329" type="curve"/>
			<point x="252" y="-329" type="line"/>
			<point x="272" y="-320"/>
			<point x="282" y="-312"/>
			<point x="287" y="-302" type="curve"/>
			<point x="295" y="-284"/>
			<point x="290" y="-272"/>
			<point x="272" y="-260" type="curve"/>
			<point x="257" y="-250"/>
			<point x="247" y="-250"/>
			<point x="230" y="-262" type="curve"/>
			<point x="195" y="-285"/>
			<point x="191" y="-307"/>
			<point x="222" y="-325" type="curve"/>
			<point x="230" y="-330"/>
			<point x="237" y="-334"/>
			<point x="238" y="-334" type="curve"/>
			<point x="240" y="-334"/>
			<point x="246" y="-332"/>
		</contour>
	</outline>
</glyph>
<glyph name="h" format="2">
	<advance width="618"/>
	<unicode hex="0068"/>
	<outline>
		<contour>
			<point x="117" y="-439" type="curve"/>
			<point x="117" y="-439" type="line"/>
			<point x="95" y="-432"/>
			<point x="64" y="-396"/>
			<point x="64" y="-379" type="curve"/>
			<point x="64" y="-359"/>
			<point x="77" y="-339"/>
			<point x="90" y="-339" type="curve"/>
			<point x="98" y="-339"/>
			<point x="110" y="-352"/>
			<point x="119" y="-371" type="curve"/>
			<point x="133" y="-397"/>
			<point x="147" y="-396"/>
			<point x="178" y="-363" type="curve"/>
			<point x="192" y="-348"/>
			<point x="204" y="-333"/>
			<point x="204" y="-331" type="curve"/>
			<point x="204" y="-329"/>
			<point x="202" y="-323"/>
			<point x="198" y="-317" type="curve"/>
			<point x="185" y="-294"/>
			<point x="180" y="-263"/>
			<point x="187" y="-242" type="curve"/>
			<point x="190" y="-232"/>
			<point x="204" y="-216"/>
			<point x="218" y="-208" type="curve"/>
			<point x="228" y="-204"/>
			<point x="232" y="-203"/>
			<point x="252" y="-203" type="curve"/>
			<point x="278" y="-203"/>
			<point x="288" y="-207"/>
			<point x="303" y="-221" type="curve"/>
			<point x="313" y="-229" type="line"/>
			<point x="355" y="-186" type="line"/>
			<point x="378" y="-162"/>
			<point x="398" y="-143"/>
			<point x="399" y="-143" type="curve"/>
			<point x="403" y="-143"/>
			<point x="418" y="-157"/>
			<point x="420" y="-164" type="curve"/>
			<point x="427" y="-179"/>
			<point x="425" y="-186"/>
			<point x="410" y="-199" type="curve"/>
			<point x="404" y="-206"/>
			<point x="385" y="-221"/>
			<point x="370" y="-232" type="curve"/>
			<point x="354" y="-244"/>
			<point x="340" y="-254"/>
			<point x="339" y="-257" type="curve"/>
			<point x="338" y="-259"/>
			<point x="340" y="-264"/>
			<point x="348" y="-279" type="curve"/>
			<point x="357" y="-298"/>
			<point x="358" y="-301"/>
			<point x="358" y="-319" type="curve"/>
			<point x="359" y="-337"/>
			<point x="359" y="-341"/>
			<point x="354" y="-349" type="curve"/>
			<point x="345" y="-367"/>
			<point x="320" y="-382"/>
			<point x="298" y="-382" type="curve"/>
			<point x="284" y="-382"/>
			<point x="255" y="-376"/>
			<point x="242" y="-371" type="curve"/>
			<point x="230" y="-366" type="line"/>
			<point x="227" y="-371" type="line"/>
			<point x="210" y="-396"/>
			<point x="183" y="-421"/>
			<point x="157" y="-434" type="curve"/>
			<point x="138" y="-443"/>
			<point x="129" y="-444"/>
		</contour>
		<contour>
			<point x="284" y="-319" type="curve"/>
			<point x="284" y="-319" type="line"/>
			<point x="294" y="-314"/>
			<point x="300" y="-299"/>
			<point x="300" y="-281" type="curve"/>
			<point x="300" y="-263"/>
			<point x="298" y="-261"/>
			<point x="278" y="-261" type="curve"/>
			<point x="262" y="-261"/>
			<point x="255" y="-264"/>
			<point x="248" y="-279" type="curve"/>
			<point x="240" y="-297"/>
			<point x="240" y="-311"/>
			<point x="249" y="-319" type="curve"/>
			<point x="255" y="-326"/>
			<point x="257" y="-327"/>
			<point x="267" y="-326" type="curve"/>
			<point x="273" y="-324"/>
			<point x="280" y="-322"/>
		</contour>
	</outline>
</glyph>
<glyph name="j" format="2">
	<advance width="779"/>
	<unicode hex="006A"/>
	<outline>
		<contour>
			<point x="675" y="-392" type="curve"/>
			<point x="675" y="-392" type="line"/>
			<point x="673" y="-390"/>
			<point x="669" y="-387"/>
			<point x="667" y="-386" type="curve"/>
			<point x="665" y="-383"/>
			<point x="665" y="-382"/>
			<point x="669" y="-372" type="curve"/>
			<point x="674" y="-359"/>
			<point x="674" y="-354"/>
			<point x="671" y="-343" type="curve"/>
			<point x="667" y="-334"/>
			<point x="659" y="-326"/>
			<point x="647" y="-320" type="curve"/>
			<point x="638" y="-316"/>
			<point x="606" y="-310"/>
			<point x="592" y="-310" type="curve"/>
			<point x="582" y="-310" type="line"/>
			<point x="582" y="-316" type="line"/>
			<point x="582" y="-330"/>
			<point x="575" y="-342"/>
			<point x="561" y="-348" type="curve"/>
			<point x="547" y="-356"/>
			<point x="530" y="-351"/>
			<point x="530" y="-340" type="curve"/>
			<point x="530" y="-338"/>
			<point x="532" y="-330"/>
			<point x="535" y="-321" type="curve"/>
			<point x="538" y="-313"/>
			<point x="540" y="-306"/>
			<point x="539" y="-306" type="curve"/>
			<point x="538" y="-305"/>
			<point x="475" y="-299"/>
			<point x="473" y="-300" type="curve"/>
			<point x="471" y="-301"/>
			<point x="469" y="-306"/>
			<point x="467" y="-312" type="curve"/>
			<point x="454" y="-347"/>
			<point x="432" y="-377"/>
			<point x="412" y="-386" type="curve"/>
			<point x="395" y="-395"/>
			<point x="374" y="-389"/>
			<point x="357" y="-373" type="curve"/>
			<point x="344" y="-360"/>
			<point x="340" y="-349"/>
			<point x="339" y="-328" type="curve"/>
			<point x="339" y="-318"/>
			<point x="337" y="-310"/>
			<point x="335" y="-306" type="curve"/>
			<point x="333" y="-300" type="line"/>
			<point x="318" y="-300" type="line"/>
			<point x="310" y="-300"/>
			<point x="258" y="-301"/>
			<point x="203" y="-303" type="curve"/>
			<point x="60" y="-308"/>
			<point x="65" y="-308"/>
			<point x="62" y="-305" type="curve"/>
			<point x="59" y="-301"/>
			<point x="61" y="-294"/>
			<point x="68" y="-291" type="curve"/>
			<point x="79" y="-285"/>
			<point x="94" y="-284"/>
			<point x="162" y="-282" type="curve"/>
			<point x="204" y="-281"/>
			<point x="235" y="-279"/>
			<point x="248" y="-279" type="curve"/>
			<point x="260" y="-277"/>
			<point x="284" y="-275"/>
			<point x="302" y="-274" type="curve"/>
			<point x="333" y="-273" type="line"/>
			<point x="340" y="-269" type="line"/>
			<point x="344" y="-265"/>
			<point x="348" y="-259"/>
			<point x="354" y="-247" type="curve"/>
			<point x="362" y="-232"/>
			<point x="365" y="-228"/>
			<point x="375" y="-217" type="curve"/>
			<point x="382" y="-211"/>
			<point x="392" y="-202"/>
			<point x="396" y="-200" type="curve"/>
			<point x="403" y="-194"/>
			<point x="406" y="-194"/>
			<point x="416" y="-193" type="curve"/>
			<point x="425" y="-192"/>
			<point x="431" y="-193"/>
			<point x="435" y="-195" type="curve"/>
			<point x="444" y="-199"/>
			<point x="455" y="-210"/>
			<point x="460" y="-221" type="curve"/>
			<point x="466" y="-229"/>
			<point x="472" y="-251"/>
			<point x="474" y="-264" type="curve"/>
			<point x="475" y="-272" type="line"/>
			<point x="497" y="-272" type="line"/>
			<point x="509" y="-272"/>
			<point x="524" y="-273"/>
			<point x="531" y="-274" type="curve"/>
			<point x="544" y="-275" type="line"/>
			<point x="542" y="-260" type="line"/>
			<point x="541" y="-246"/>
			<point x="541" y="-246"/>
			<point x="546" y="-241" type="curve"/>
			<point x="552" y="-235"/>
			<point x="557" y="-233"/>
			<point x="565" y="-233" type="curve"/>
			<point x="571" y="-233"/>
			<point x="573" y="-234"/>
			<point x="577" y="-240" type="curve"/>
			<point x="584" y="-246" type="line"/>
			<point x="584" y="-260" type="line"/>
			<point x="584" y="-276" type="line"/>
			<point x="589" y="-279" type="line"/>
			<point x="596" y="-281"/>
			<point x="629" y="-288"/>
			<point x="653" y="-291" type="curve"/>
			<point x="668" y="-293"/>
			<point x="677" y="-296"/>
			<point x="697" y="-304" type="curve"/>
			<point x="724" y="-314"/>
			<point x="732" y="-318"/>
			<point x="743" y="-327" type="curve"/>
			<point x="755" y="-338"/>
			<point x="759" y="-344"/>
			<point x="759" y="-357" type="curve"/>
			<point x="759" y="-367"/>
			<point x="759" y="-367"/>
			<point x="751" y="-378" type="curve"/>
			<point x="737" y="-395"/>
			<point x="737" y="-395"/>
			<point x="707" y="-395" type="curve"/>
			<point x="686" y="-395"/>
			<point x="679" y="-394"/>
		</contour>
		<contour>
			<point x="408" y="-337" type="curve"/>
			<point x="408" y="-337" type="line"/>
			<point x="414" y="-331"/>
			<point x="423" y="-314"/>
			<point x="424" y="-304" type="curve"/>
			<point x="425" y="-297" type="line"/>
			<point x="402" y="-297" type="line"/>
			<point x="380" y="-297" type="line"/>
			<point x="379" y="-303" type="line"/>
			<point x="377" y="-310"/>
			<point x="378" y="-324"/>
			<point x="379" y="-329" type="curve"/>
			<point x="381" y="-335"/>
			<point x="390" y="-341"/>
			<point x="397" y="-341" type="curve"/>
			<point x="401" y="-341"/>
			<point x="405" y="-339"/>
		</contour>
		<contour>
			<point x="426" y="-272" type="line"/>
			<point x="428" y="-267" type="line"/>
			<point x="431" y="-256"/>
			<point x="427" y="-241"/>
			<point x="419" y="-236" type="curve"/>
			<point x="412" y="-232"/>
			<point x="407" y="-232"/>
			<point x="397" y="-238" type="curve"/>
			<point x="388" y="-242"/>
			<point x="382" y="-250"/>
			<point x="382" y="-260" type="curve"/>
			<point x="380" y="-273"/>
			<point x="380" y="-272"/>
			<point x="404" y="-272" type="curve"/>
		</contour>
	</outline>
</glyph>
<glyph name="m" format="2">
	<advance width="709"/>
	<unicode hex="006D"/>
	<outline>
		<contour>
			<point x="123" y="-248" type="curve"/>
			<point x="123" y="-248" type="line"/>
			<point x="123" y="-247"/>
			<point x="122" y="-245"/>
			<point x="122" y="-242" type="curve"/>
			<point x="122" y="-239"/>
			<point x="144" y="-178"/>
			<point x="171" y="-107" type="curve"/>
			<point x="219" y="24" type="line"/>
			<point x="212" y="37" type="line"/>
			<point x="201" y="58"/>
			<point x="175" y="96"/>
			<point x="164" y="108" type="curve"/>
			<point x="151" y="121"/>
			<point x="140" y="128"/>
			<point x="130" y="130" type="curve"/>
			<point x="122" y="131"/>
			<point x="120" y="135"/>
			<point x="120" y="148" type="curve"/>
			<point x="120" y="162"/>
			<point x="123" y="170"/>
			<point x="133" y="179" type="curve"/>
			<point x="141" y="188"/>
			<point x="156" y="194"/>
			<point x="168" y="195" type="curve"/>
			<point x="175" y="196" type="line"/>
			<point x="208" y="155" type="line"/>
			<point x="238" y="120"/>
			<point x="243" y="115"/>
			<point x="248" y="115" type="curve"/>
			<point x="253" y="114"/>
			<point x="254" y="115"/>
			<point x="259" y="126" type="curve"/>
			<point x="262" y="133"/>
			<point x="271" y="152"/>
			<point x="279" y="168" type="curve"/>
			<point x="294" y="198"/>
			<point x="307" y="218"/>
			<point x="314" y="222" type="curve"/>
			<point x="316" y="223"/>
			<point x="323" y="223"/>
			<point x="331" y="223" type="curve"/>
			<point x="345" y="222" type="line"/>
			<point x="347" y="215" type="line"/>
			<point x="350" y="208" type="line"/>
			<point x="328" y="179" type="line"/>
			<point x="309" y="153"/>
			<point x="305" y="147"/>
			<point x="295" y="124" type="curve"/>
			<point x="281" y="93"/>
			<point x="279" y="86"/>
			<point x="280" y="68" type="curve"/>
			<point x="280" y="56"/>
			<point x="282" y="52"/>
			<point x="290" y="35" type="curve"/>
			<point x="295" y="24"/>
			<point x="303" y="8"/>
			<point x="308" y="0" type="curve"/>
			<point x="317" y="-17"/>
			<point x="344" y="-81"/>
			<point x="356" y="-118" type="curve"/>
			<point x="368" y="-154"/>
			<point x="373" y="-172"/>
			<point x="374" y="-190" type="curve"/>
			<point x="375" y="-210"/>
			<point x="373" y="-215"/>
			<point x="359" y="-223" type="curve"/>
			<point x="348" y="-230"/>
			<point x="338" y="-231"/>
			<point x="335" y="-226" type="curve"/>
			<point x="334" y="-224"/>
			<point x="322" y="-194"/>
			<point x="309" y="-159" type="curve"/>
			<point x="289" y="-107"/>
			<point x="281" y="-89"/>
			<point x="264" y="-55" type="curve"/>
			<point x="252" y="-33"/>
			<point x="242" y="-14"/>
			<point x="241" y="-14" type="curve"/>
			<point x="241" y="-14"/>
			<point x="222" y="-65"/>
			<point x="201" y="-128" type="curve"/>
			<point x="162" y="-243" type="line"/>
			<point x="150" y="-244" type="line"/>
			<point x="143" y="-244"/>
			<point x="135" y="-246"/>
			<point x="132" y="-247" type="curve"/>
			<point x="126" y="-249"/>
			<point x="125" y="-250"/>
		</contour>
		<contour>
			<point x="210" y="252" type="curve"/>
			<point x="210" y="252" type="line"/>
			<point x="192" y="264"/>
			<point x="187" y="279"/>
			<point x="185" y="321" type="curve"/>
			<point x="183" y="361"/>
			<point x="179" y="381"/>
			<point x="168" y="397" type="curve"/>
			<point x="163" y="405"/>
			<point x="163" y="411"/>
			<point x="168" y="420" type="curve"/>
			<point x="172" y="425" type="line"/>
			<point x="260" y="424" type="line"/>
			<point x="348" y="423" type="line"/>
			<point x="347" y="447" type="line"/>
			<point x="345" y="484"/>
			<point x="341" y="502"/>
			<point x="333" y="518" type="curve"/>
			<point x="327" y="533"/>
			<point x="326" y="542"/>
			<point x="330" y="549" type="curve"/>
			<point x="334" y="553" type="line"/>
			<point x="453" y="553" type="line"/>
			<point x="571" y="552" type="line"/>
			<point x="579" y="545" type="line"/>
			<point x="584" y="540"/>
			<point x="586" y="535"/>
			<point x="589" y="524" type="curve"/>
			<point x="590" y="501"/>
			<point x="593" y="501"/>
			<point x="498" y="502" type="curve"/>
			<point x="418" y="504" type="line"/>
			<point x="420" y="493" type="line"/>
			<point x="420" y="486"/>
			<point x="422" y="460"/>
			<point x="424" y="433" type="curve"/>
			<point x="427" y="390"/>
			<point x="427" y="386"/>
			<point x="424" y="381" type="curve"/>
			<point x="420" y="372"/>
			<point x="409" y="372"/>
			<point x="358" y="374" type="curve"/>
			<point x="333" y="375"/>
			<point x="301" y="376"/>
			<point x="284" y="376" type="curve"/>
			<point x="256" y="376" type="line"/>
			<point x="256" y="371" type="line"/>
			<point x="256" y="366"/>
			<point x="260" y="342"/>
			<point x="261" y="314" type="curve"/>
			<point x="266" y="256"/>
			<point x="266" y="258"/>
			<point x="242" y="250" type="curve"/>
			<point x="226" y="242"/>
			<point x="220" y="243"/>
		</contour>
	</outline>
</glyph>
<glyph name="n" format="2">
	<advance width="554"/>
	<unicode hex="006E"/>
	<outline>
		<contour>
			<point x="123" y="-248" type="curve"/>
			<point x="123" y="-248" type="line"/>
			<point x="123" y="-247"/>
			<point x="122" y="-245"/>
			<point x="122" y="-242" type="curve"/>
			<point x="122" y="-239"/>
			<point x="144" y="-178"/>
			<point x="171" y="-107" type="curve"/>
			<point x="219" y="24" type="line"/>
			<point x="212" y="37" type="line"/>
			<point x="201" y="58"/>
			<point x="175" y="96"/>
			<point x="164" y="108" type="curve"/>
			<point x="151" y="121"/>
			<point x="140" y="128"/>
			<point x="130" y="130" type="curve"/>
			<point x="122" y="131"/>
			<point x="120" y="135"/>
			<point x="120" y="148" type="curve"/>
			<point x="120" y="162"/>
			<point x="123" y="170"/>
			<point x="133" y="179" type="curve"/>
			<point x="141" y="188"/>
			<point x="156" y="194"/>
			<point x="168" y="195" type="curve"/>
			<point x="175" y="196" type="line"/>
			<point x="208" y="155" type="line"/>
			<point x="238" y="120"/>
			<point x="243" y="115"/>
			<point x="248" y="115" type="curve"/>
			<point x="253" y="114"/>
			<point x="254" y="115"/>
			<point x="259" y="126" type="curve"/>
			<point x="262" y="133"/>
			<point x="271" y="152"/>
			<point x="279" y="168" type="curve"/>
			<point x="294" y="198"/>
			<point x="307" y="218"/>
			<point x="314" y="222" type="curve"/>
			<point x="316" y="223"/>
			<point x="323" y="223"/>
			<point x="331" y="223" type="curve"/>
			<point x="345" y="222" type="line"/>
			<point x="347" y="215" type="line"/>
			<point x="350" y="208" type="line"/>
			<point x="328" y="179" type="line"/>
			<point x="309" y="153"/>
			<point x="305" y="147"/>
			<point x="295" y="124" type="curve"/>
			<point x="281" y="93"/>
			<point x="279" y="86"/>
			<point x="280" y="68" type="curve"/>
			<point x="280" y="56"/>
			<point x="282" y="52"/>
			<point x="290" y="35" type="curve"/>
			<point x="295" y="24"/>
			<point x="303" y="8"/>
			<point x="308" y="0" type="curve"/>
			<point x="317" y="-17"/>
			<point x="344" y="-81"/>
			<point x="356" y="-118" type="curve"/>
			<point x="368" y="-154"/>
			<point x="373" y="-172"/>
			<point x="374" y="-190" type="curve"/>
			<point x="375" y="-210"/>
			<point x="373" y="-215"/>
			<point x="359" y="-223" type="curve"/>
			<point x="348" y="-230"/>
			<point x="338" y="-231"/>
			<point x="335" y="-226" type="curve"/>
			<point x="334" y="-224"/>
			<point x="322" y="-194"/>
			<point x="309" y="-159" type="curve"/>
			<point x="289" y="-107"/>
			<point x="281" y="-89"/>
			<point x="264" y="-55" type="curve"/>
			<point x="252" y="-33"/>
			<point x="242" y="-14"/>
			<point x="241" y="-14" type="curve"/>
			<point x="241" y="-14"/>
			<point x="222" y="-65"/>
			<point x="201" y="-128" type="curve"/>
			<point x="162" y="-243" type="line"/>
			<point x="150" y="-244" type="line"/>
			<point x="143" y="-244"/>
			<point x="135" y="-246"/>
			<point x="132" y="-247" type="curve"/>
			<point x="126" y="-249"/>
			<point x="125" y="-250"/>
		</contour>
		<contour>
			<point x="242" y="239" type="curve"/>
			<point x="242" y="239" type="line"/>
			<point x="226" y="233"/>
			<point x="220" y="233"/>
			<point x="209" y="240" type="curve"/>
			<point x="189" y="254"/>
			<point x="184" y="267"/>
			<point x="182" y="311" type="curve"/>
			<point x="180" y="347"/>
			<point x="175" y="370"/>
			<point x="168" y="387" type="curve"/>
			<point x="161" y="400"/>
			<point x="160" y="412"/>
			<point x="165" y="418" type="curve"/>
			<point x="168" y="423" type="line"/>
			<point x="224" y="421" type="line"/>
			<point x="280" y="419"/>
			<point x="372" y="419"/>
			<point x="401" y="420" type="curve"/>
			<point x="414" y="421"/>
			<point x="417" y="421"/>
			<point x="421" y="417" type="curve"/>
			<point x="429" y="412"/>
			<point x="432" y="404"/>
			<point x="434" y="391" type="curve"/>
			<point x="435" y="380"/>
			<point x="434" y="379"/>
			<point x="430" y="375" type="curve"/>
			<point x="421" y="366"/>
			<point x="409" y="365"/>
			<point x="360" y="370" type="curve"/>
			<point x="351" y="371"/>
			<point x="324" y="372"/>
			<point x="299" y="372" type="curve"/>
			<point x="258" y="372"/>
			<point x="255" y="372"/>
			<point x="255" y="369" type="curve"/>
			<point x="255" y="367"/>
			<point x="257" y="340"/>
			<point x="260" y="309" type="curve"/>
			<point x="264" y="253" type="line"/>
			<point x="259" y="248" type="line"/>
			<point x="256" y="245"/>
			<point x="249" y="241"/>
		</contour>
	</outline>
</glyph>
<glyph name="o" format="2">
	<advance width="1290"/>
	<unicode hex="006F"/>
	<outline>
		<contour>
			<point x="240" y="-135" type="curve"/>
			<point x="240" y="-135" type="line"/>
			<point x="202" y="-129"/>
			<point x="178" y="-118"/>
			<point x="160" y="-99" type="curve"/>
			<point x="150" y="-88"/>
			<point x="150" y="-87"/>
			<point x="150" y="-73" type="curve"/>
			<point x="150" y="-55"/>
			<point x="157" y="-40"/>
			<point x="171" y="-27" type="curve"/>
			<point x="190" y="-12"/>
			<point x="208" y="-6"/>
			<point x="294" y="3" type="curve"/>
			<point x="315" y="6"/>
			<point x="322" y="6"/>
			<point x="331" y="3" type="curve"/>
			<point x="345" y="0"/>
			<point x="360" y="-13"/>
			<point x="358" y="-19" type="curve"/>
			<point x="357" y="-22"/>
			<point x="342" y="-36"/>
			<point x="324" y="-51" type="curve"/>
			<point x="300" y="-70"/>
			<point x="292" y="-79"/>
			<point x="294" y="-81" type="curve"/>
			<point x="295" y="-82"/>
			<point x="315" y="-84"/>
			<point x="349" y="-84" type="curve"/>
			<point x="417" y="-84"/>
			<point x="468" y="-76"/>
			<point x="636" y="-48" type="curve"/>
			<point x="688" y="-39"/>
			<point x="739" y="-33"/>
			<point x="825" y="-27" type="curve"/>
			<point x="876" y="-24"/>
			<point x="886" y="-24"/>
			<point x="910" y="-27" type="curve"/>
			<point x="973" y="-37"/>
			<point x="1003" y="-54"/>
			<point x="999" y="-81" type="curve"/>
			<point x="999" y="-91"/>
			<point x="970" y="-115"/>
			<point x="945" y="-129" type="curve"/>
			<point x="927" y="-136"/>
			<point x="925" y="-138"/>
			<point x="892" y="-138" type="curve"/>
			<point x="873" y="-139"/>
			<point x="853" y="-138"/>
			<point x="849" y="-138" type="curve"/>
			<point x="840" y="-136"/>
			<point x="814" y="-117"/>
			<point x="814" y="-111" type="curve"/>
			<point x="814" y="-109"/>
			<point x="825" y="-100"/>
			<point x="838" y="-91" type="curve"/>
			<point x="862" y="-73" type="line"/>
			<point x="834" y="-75" type="line" smooth="yes"/>
			<point x="781" y="-78"/>
			<point x="666" y="-94"/>
			<point x="534" y="-117" type="curve"/>
			<point x="436" y="-135"/>
			<point x="420" y="-136"/>
			<point x="337" y="-138" type="curve"/>
			<point x="280" y="-138"/>
			<point x="255" y="-138"/>
		</contour>
		<component base="_part.two_beats" xOffset="391" yOffset="186"/>
		<component base="_part.apostrophoi" xOffset="300" yOffset="-346"/>
	</outline>
</glyph>
<glyph name="q" format="2">
	<advance width="629"/>
	<unicode hex="0071"/>
	<outline>
		<contour>
			<point x="387" y="-653" type="curve"/>
			<point x="387" y="-653" type="line"/>
			<point x="370" y="-651"/>
			<point x="363" y="-648"/>
			<point x="363" y="-641" type="curve"/>
			<point x="363" y="-639"/>
			<point x="367" y="-623"/>
			<point x="373" y="-608" type="curve"/>
			<point x="382" y="-580"/>
			<point x="383" y="-579"/>
			<point x="381" y="-571" type="curve"/>
			<point x="378" y="-557"/>
			<point x="364" y="-538"/>
			<point x="339" y="-513" type="curve"/>
			<point x="291" y="-464"/>
			<point x="268" y="-428"/>
			<point x="260" y="-388" type="curve"/>
			<point x="256" y="-366"/>
			<point x="257" y="-324"/>
			<point x="264" y="-285" type="curve"/>
			<point x="265" y="-279"/>
			<point x="264" y="-279"/>
			<point x="244" y="-299" type="curve"/>
			<point x="213" y="-329"/>
			<point x="195" y="-339"/>
			<point x="166" y="-341" type="curve"/>
			<point x="154" y="-342"/>
			<point x="148" y="-342"/>
			<point x="141" y="-340" type="curve"/>
			<point x="97" y="-327"/>
			<point x="88" y="-284"/>
			<point x="118" y="-233" type="curve"/>
			<point x="135" y="-204"/>
			<point x="171" y="-169"/>
			<point x="196" y="-158" type="curve"/>
			<point x="213" y="-149"/>
			<point x="232" y="-143"/>
			<point x="241" y="-143" type="curve"/>
			<point x="251" y="-143"/>
			<point x="263" y="-151"/>
			<point x="274" y="-164" type="curve"/>
			<point x="280" y="-172" type="line"/>
			<point x="284" y="-157" type="line"/>
			<point x="286" y="-148"/>
			<point x="290" y="-139"/>
			<point x="292" y="-137" type="curve"/>
			<point x="296" y="-132"/>
			<point x="297" y="-132"/>
			<point x="303" y="-134" type="curve"/>
			<point x="316" y="-139"/>
			<point x="336" y="-149"/>
			<point x="340" y="-154" type="curve"/>
			<point x="345" y="-159" type="line"/>
			<point x="335" y="-190" type="line"/>
			<point x="309" y="-274"/>
			<point x="295" y="-335"/>
			<point x="295" y="-363" type="curve"/>
			<point x="295" y="-372"/>
			<point x="297" y="-382"/>
			<point x="301" y="-397" type="curve"/>
			<point x="311" y="-433"/>
			<point x="317" y="-446"/>
			<point x="327" y="-457" type="curve"/>
			<point x="338" y="-469"/>
			<point x="362" y="-486"/>
			<point x="388" y="-500" type="curve"/>
			<point x="419" y="-516"/>
			<point x="434" y="-539"/>
			<point x="438" y="-579" type="curve"/>
			<point x="440" y="-595"/>
			<point x="440" y="-596"/>
			<point x="434" y="-621" type="curve"/>
			<point x="430" y="-636"/>
			<point x="426" y="-648"/>
			<point x="424" y="-650" type="curve"/>
			<point x="420" y="-654"/>
			<point x="405" y="-655"/>
		</contour>
		<contour>
			<point x="196" y="-303" type="curve"/>
			<point x="196" y="-303" type="line"/>
			<point x="213" y="-295"/>
			<point x="232" y="-261"/>
			<point x="242" y="-219" type="curve"/>
			<point x="246" y="-205"/>
			<point x="249" y="-191"/>
			<point x="249" y="-186" type="curve"/>
			<point x="251" y="-179"/>
			<point x="250" y="-178"/>
			<point x="247" y="-176" type="curve"/>
			<point x="237" y="-173"/>
			<point x="210" y="-199"/>
			<point x="194" y="-226" type="curve"/>
			<point x="173" y="-262"/>
			<point x="167" y="-288"/>
			<point x="176" y="-302" type="curve"/>
			<point x="179" y="-307"/>
			<point x="186" y="-307"/>
		</contour>
	</outline>
</glyph>
<glyph name="r" format="2">
	<advance width="672"/>
	<unicode hex="0072"/>
	<outline>
		<contour>
			<point x="406" y="-620" type="curve"/>
			<point x="406" y="-620" type="line"/>
			<point x="406" y="-606"/>
			<point x="416" y="-573"/>
			<point x="435" y="-540" type="curve"/>
			<point x="452" y="-508"/>
			<point x="462" y="-482"/>
			<point x="459" y="-482" type="curve"/>
			<point x="456" y="-482"/>
			<point x="435" y="-482"/>
			<point x="416" y="-483" type="curve"/>
			<point x="363" y="-485"/>
			<point x="359" y="-475"/>
			<point x="372" y="-375" type="curve"/>
			<point x="385" y="-279"/>
			<point x="385" y="-258"/>
			<point x="373" y="-240" type="curve"/>
			<point x="365" y="-230"/>
			<point x="357" y="-228"/>
			<point x="337" y="-232" type="curve"/>
			<point x="284" y="-242"/>
			<point x="272" y="-299"/>
			<point x="305" y="-394" type="curve"/>
			<point x="343" y="-502"/>
			<point x="312" y="-565"/>
			<point x="221" y="-565" type="curve"/>
			<point x="127" y="-565"/>
			<point x="74" y="-490"/>
			<point x="112" y="-411" type="curve"/>
			<point x="127" y="-377"/>
			<point x="160" y="-361"/>
			<point x="201" y="-366" type="curve"/>
			<point x="232" y="-372" type="line"/>
			<point x="225" y="-351" type="line" smooth="yes"/>
			<point x="221" y="-339"/>
			<point x="217" y="-311"/>
			<point x="216" y="-287" type="curve"/>
			<point x="216" y="-239"/>
			<point x="230" y="-213"/>
			<point x="269" y="-189" type="curve"/>
			<point x="300" y="-171"/>
			<point x="377" y="-170"/>
			<point x="409" y="-187" type="curve"/>
			<point x="454" y="-209"/>
			<point x="458" y="-248"/>
			<point x="433" y="-376" type="curve"/>
			<point x="423" y="-430" type="line"/>
			<point x="468" y="-426" type="line" smooth="yes"/>
			<point x="493" y="-424"/>
			<point x="518" y="-426"/>
			<point x="523" y="-430" type="curve"/>
			<point x="542" y="-443"/>
			<point x="534" y="-480"/>
			<point x="504" y="-532" type="curve"/>
			<point x="473" y="-582"/>
			<point x="459" y="-624"/>
			<point x="469" y="-638" type="curve"/>
			<point x="472" y="-644"/>
			<point x="461" y="-648"/>
			<point x="440" y="-648" type="curve"/>
			<point x="406" y="-648"/>
			<point x="406" y="-648"/>
		</contour>
		<contour>
			<point x="266" y="-504" type="curve"/>
			<point x="266" y="-504" type="line"/>
			<point x="295" y="-469"/>
			<point x="269" y="-408"/>
			<point x="224" y="-408" type="curve"/>
			<point x="193" y="-408"/>
			<point x="177" y="-419"/>
			<point x="168" y="-446" type="curve"/>
			<point x="146" y="-507"/>
			<point x="223" y="-553"/>
		</contour>
		<contour>
			<point x="231" y="-128" type="curve"/>
			<point x="231" y="-128" type="line"/>
			<point x="212" y="-123"/>
			<point x="216" y="-111"/>
			<point x="240" y="-107" type="curve"/>
			<point x="253" y="-105"/>
			<point x="264" y="-97"/>
			<point x="264" y="-87" type="curve"/>
			<point x="264" y="-71"/>
			<point x="247" y="-62"/>
			<point x="195" y="-54" type="curve"/>
			<point x="154" y="-48"/>
			<point x="143" y="-28"/>
			<point x="180" y="-28" type="curve"/>
			<point x="215" y="-28"/>
			<point x="290" y="-46"/>
			<point x="311" y="-60" type="curve"/>
			<point x="333" y="-74"/>
			<point x="337" y="-101"/>
			<point x="319" y="-117" type="curve"/>
			<point x="308" y="-127"/>
			<point x="253" y="-134"/>
		</contour>
		<contour>
			<point x="408" y="-128" type="curve"/>
			<point x="408" y="-128" type="line"/>
			<point x="389" y="-123"/>
			<point x="393" y="-111"/>
			<point x="417" y="-107" type="curve"/>
			<point x="430" y="-105"/>
			<point x="441" y="-97"/>
			<point x="441" y="-87" type="curve"/>
			<point x="441" y="-71"/>
			<point x="424" y="-62"/>
			<point x="372" y="-54" type="curve"/>
			<point x="331" y="-48"/>
			<point x="320" y="-28"/>
			<point x="357" y="-28" type="curve"/>
			<point x="392" y="-28"/>
			<point x="467" y="-46"/>
			<point x="488" y="-60" type="curve"/>
			<point x="510" y="-74"/>
			<point x="514" y="-101"/>
			<point x="496" y="-117" type="curve"/>
			<point x="485" y="-127"/>
			<point x="430" y="-134"/>
		</contour>
	</outline>
</glyph>
<glyph name="s" format="2">
	<advance width="724"/>
	<unicode hex="0073"/>
	<outline>
		<contour>
			<point x="150" y="-436" type="curve"/>
			<point x="150" y="-436" type="line"/>
			<point x="181" y="-413"/>
			<point x="233" y="-377"/>
			<point x="269" y="-362" type="curve"/>
			<point x="303" y="-346"/>
			<point x="307" y="-345"/>
			<point x="338" y="-350" type="curve"/>
			<point x="381" y="-356"/>
			<point x="443" y="-350"/>
			<point x="466" y="-337" type="curve"/>
			<point x="494" y="-320"/>
			<point x="507" y="-295"/>
			<point x="507" y="-262" type="curve"/>
			<point x="507" y="-235" type="line"/>
			<point x="565" y="-212" type="line" smooth="yes"/>
			<point x="632" y="-184"/>
			<point x="685" y="-154"/>
			<point x="687" y="-142" type="curve"/>
			<point x="693" y="-114"/>
			<point x="663" y="-96"/>
			<point x="642" y="-111" type="curve"/>
			<point x="609" y="-134"/>
			<point x="540" y="-180"/>
			<point x="518" y="-190" type="curve"/>
			<point x="500" y="-199"/>
			<point x="487" y="-203"/>
			<point x="467" y="-201" type="curve"/>
			<point x="453" y="-199"/>
			<point x="416" y="-198"/>
			<point x="387" y="-198" type="curve"/>
			<point x="344" y="-198"/>
			<point x="329" y="-199"/>
			<point x="317" y="-208" type="curve"/>
			<point x="291" y="-223"/>
			<point x="278" y="-247"/>
			<point x="278" y="-283" type="curve"/>
			<point x="277" y="-315" type="line"/>
			<point x="224" y="-338" type="line" smooth="yes"/>
			<point x="157" y="-365"/>
			<point x="138" y="-376"/>
			<point x="117" y="-394" type="curve"/>
			<point x="96" y="-407"/>
			<point x="95" y="-415"/>
			<point x="109" y="-434" type="curve"/>
			<point x="123" y="-451"/>
			<point x="130" y="-451"/>
		</contour>
		<contour>
			<point x="338" y="-299" type="curve"/>
			<point x="338" y="-299" type="line"/>
			<point x="327" y="-285"/>
			<point x="328" y="-268"/>
			<point x="346" y="-248" type="curve"/>
			<point x="359" y="-233"/>
			<point x="365" y="-231"/>
			<point x="388" y="-231" type="curve"/>
			<point x="423" y="-231"/>
			<point x="443" y="-244"/>
			<point x="441" y="-267" type="curve"/>
			<point x="441" y="-278"/>
			<point x="434" y="-287"/>
			<point x="425" y="-294" type="curve"/>
			<point x="404" y="-310"/>
			<point x="352" y="-313"/>
		</contour>
	</outline>
</glyph>
<glyph name="t" format="2">
	<advance width="630"/>
	<unicode hex="0074"/>
	<outline>
		<contour>
			<point x="387" y="-773" type="curve"/>
			<point x="387" y="-773" type="line"/>
			<point x="370" y="-771"/>
			<point x="363" y="-768"/>
			<point x="363" y="-761" type="curve"/>
			<point x="363" y="-759"/>
			<point x="367" y="-743"/>
			<point x="373" y="-728" type="curve"/>
			<point x="382" y="-700"/>
			<point x="383" y="-699"/>
			<point x="381" y="-691" type="curve"/>
			<point x="378" y="-677"/>
			<point x="364" y="-658"/>
			<point x="339" y="-633" type="curve"/>
			<point x="291" y="-584"/>
			<point x="268" y="-548"/>
			<point x="260" y="-508" type="curve"/>
			<point x="256" y="-486"/>
			<point x="257" y="-444"/>
			<point x="264" y="-405" type="curve"/>
			<point x="265" y="-399"/>
			<point x="264" y="-399"/>
			<point x="244" y="-419" type="curve"/>
			<point x="213" y="-449"/>
			<point x="195" y="-459"/>
			<point x="166" y="-461" type="curve"/>
			<point x="154" y="-462"/>
			<point x="148" y="-462"/>
			<point x="141" y="-460" type="curve"/>
			<point x="97" y="-447"/>
			<point x="88" y="-404"/>
			<point x="118" y="-353" type="curve"/>
			<point x="135" y="-324"/>
			<point x="171" y="-289"/>
			<point x="196" y="-278" type="curve"/>
			<point x="213" y="-269"/>
			<point x="232" y="-263"/>
			<point x="241" y="-263" type="curve"/>
			<point x="251" y="-263"/>
			<point x="263" y="-271"/>
			<point x="274" y="-284" type="curve"/>
			<point x="280" y="-292" type="line"/>
			<point x="284" y="-277" type="line"/>
			<point x="286" y="-268"/>
			<point x="290" y="-259"/>
			<point x="292" y="-257" type="curve"/>
			<point x="296" y="-252"/>
			<point x="297" y="-252"/>
			<point x="303" y="-254" type="curve"/>
			<point x="316" y="-259"/>
			<point x="336" y="-269"/>
			<point x="340" y="-274" type="curve"/>
			<point x="345" y="-279" type="line"/>
			<point x="335" y="-310" type="line" smooth="yes"/>
			<point x="309" y="-394"/>
			<point x="295" y="-455"/>
			<point x="295" y="-483" type="curve"/>
			<point x="295" y="-492"/>
			<point x="297" y="-502"/>
			<point x="301" y="-517" type="curve"/>
			<point x="311" y="-553"/>
			<point x="317" y="-566"/>
			<point x="327" y="-577" type="curve"/>
			<point x="338" y="-589"/>
			<point x="362" y="-606"/>
			<point x="388" y="-620" type="curve"/>
			<point x="419" y="-636"/>
			<point x="434" y="-659"/>
			<point x="438" y="-699" type="curve"/>
			<point x="440" y="-715"/>
			<point x="440" y="-716"/>
			<point x="434" y="-741" type="curve"/>
			<point x="430" y="-756"/>
			<point x="426" y="-768"/>
			<point x="424" y="-770" type="curve"/>
			<point x="420" y="-774"/>
			<point x="405" y="-775"/>
		</contour>
		<contour>
			<point x="196" y="-423" type="curve"/>
			<point x="196" y="-423" type="line"/>
			<point x="213" y="-415"/>
			<point x="232" y="-381"/>
			<point x="242" y="-339" type="curve"/>
			<point x="246" y="-325"/>
			<point x="249" y="-311"/>
			<point x="249" y="-306" type="curve"/>
			<point x="251" y="-299"/>
			<point x="250" y="-298"/>
			<point x="247" y="-296" type="curve"/>
			<point x="237" y="-293"/>
			<point x="210" y="-319"/>
			<point x="194" y="-346" type="curve"/>
			<point x="173" y="-382"/>
			<point x="167" y="-408"/>
			<point x="176" y="-422" type="curve"/>
			<point x="179" y="-427"/>
			<point x="186" y="-427"/>
		</contour>
		<component base="_part.apostrophoi" xScale="0.9" yScale="0.9" xOffset="-23" yOffset="-548"/>
	</outline>
</glyph>
<glyph name="u" format="2">
	<advance width="676"/>
	<unicode hex="0075"/>
	<outline>
		<contour>
			<point x="417" y="-563" type="curve"/>
			<point x="417" y="-563" type="line"/>
			<point x="420" y="-553"/>
			<point x="432" y="-533"/>
			<point x="442" y="-518" type="curve"/>
			<point x="468" y="-479"/>
			<point x="465" y="-471"/>
			<point x="422" y="-477" type="curve"/>
			<point x="364" y="-485"/>
			<point x="359" y="-472"/>
			<point x="372" y="-359" type="curve"/>
			<point x="378" y="-306"/>
			<point x="380" y="-256"/>
			<point x="377" y="-247" type="curve"/>
			<point x="368" y="-223"/>
			<point x="314" y="-225"/>
			<point x="300" y="-249" type="curve"/>
			<point x="286" y="-276"/>
			<point x="288" y="-348"/>
			<point x="305" y="-395" type="curve"/>
			<point x="341" y="-494"/>
			<point x="306" y="-560"/>
			<point x="219" y="-560" type="curve"/>
			<point x="115" y="-560"/>
			<point x="62" y="-456"/>
			<point x="130" y="-388" type="curve"/>
			<point x="155" y="-363"/>
			<point x="167" y="-359"/>
			<point x="195" y="-362" type="curve"/>
			<point x="214" y="-364"/>
			<point x="230" y="-364"/>
			<point x="230" y="-360" type="curve"/>
			<point x="230" y="-357"/>
			<point x="225" y="-336"/>
			<point x="220" y="-312" type="curve"/>
			<point x="203" y="-228"/>
			<point x="252" y="-170"/>
			<point x="344" y="-170" type="curve"/>
			<point x="432" y="-170"/>
			<point x="460" y="-213"/>
			<point x="441" y="-323" type="curve"/>
			<point x="434" y="-363"/>
			<point x="427" y="-402"/>
			<point x="424" y="-410" type="curve"/>
			<point x="421" y="-423"/>
			<point x="430" y="-426"/>
			<point x="472" y="-425" type="curve"/>
			<point x="522" y="-424"/>
			<point x="525" y="-426"/>
			<point x="528" y="-452" type="curve"/>
			<point x="530" y="-468"/>
			<point x="521" y="-495"/>
			<point x="506" y="-519" type="curve"/>
			<point x="492" y="-541"/>
			<point x="480" y="-564"/>
			<point x="480" y="-570" type="curve"/>
			<point x="480" y="-575"/>
			<point x="464" y="-580"/>
			<point x="445" y="-580" type="curve"/>
			<point x="417" y="-580"/>
			<point x="412" y="-577"/>
		</contour>
		<contour>
			<point x="262" y="-503" type="curve"/>
			<point x="262" y="-503" type="line"/>
			<point x="272" y="-494"/>
			<point x="280" y="-476"/>
			<point x="280" y="-463" type="curve"/>
			<point x="280" y="-435"/>
			<point x="247" y="-400"/>
			<point x="220" y="-400" type="curve"/>
			<point x="194" y="-400"/>
			<point x="160" y="-434"/>
			<point x="160" y="-460" type="curve"/>
			<point x="160" y="-486"/>
			<point x="194" y="-520"/>
			<point x="222" y="-520" type="curve"/>
			<point x="234" y="-520"/>
			<point x="252" y="-513"/>
		</contour>
		<contour>
			<point x="417" y="-563" type="curve"/>
			<point x="417" y="-563" type="line"/>
			<point x="420" y="-553"/>
			<point x="432" y="-533"/>
			<point x="442" y="-518" type="curve"/>
			<point x="468" y="-479"/>
			<point x="465" y="-471"/>
			<point x="422" y="-477" type="curve"/>
			<point x="364" y="-485"/>
			<point x="359" y="-472"/>
			<point x="372" y="-359" type="curve"/>
			<point x="378" y="-306"/>
			<point x="380" y="-256"/>
			<point x="377" y="-247" type="curve"/>
			<point x="368" y="-223"/>
			<point x="314" y="-225"/>
			<point x="300" y="-249" type="curve"/>
			<point x="286" y="-276"/>
			<point x="288" y="-348"/>
			<point x="305" y="-395" type="curve"/>
			<point x="341" y="-494"/>
			<point x="306" y="-560"/>
			<point x="219" y="-560" type="curve"/>
			<point x="115" y="-560"/>
			<point x="62" y="-456"/>
			<point x="130" y="-388" type="curve"/>
			<point x="155" y="-363"/>
			<point x="167" y="-359"/>
			<point x="195" y="-362" type="curve"/>
			<point x="214" y="-364"/>
			<point x="230" y="-364"/>
			<point x="230" y="-360" type="curve"/>
			<point x="230" y="-357"/>
			<point x="225" y="-336"/>
			<point x="220" y="-312" type="curve"/>
			<point x="203" y="-228"/>
			<point x="252" y="-170"/>
			<point x="344" y="-170" type="curve"/>
			<point x="432" y="-170"/>
			<point x="460" y="-213"/>
			<point x="441" y="-323" type="curve"/>
			<point x="434" y="-363"/>
			<point x="427" y="-402"/>
			<point x="424" y="-410" type="curve"/>
			<point x="421" y="-423"/>
			<point x="430" y="-426"/>
			<point x="472" y="-425" type="curve"/>
			<point x="522" y="-424"/>
			<point x="525" y="-426"/>
			<point x="528" y="-452" type="curve"/>
			<point x="530" y="-468"/>
			<point x="521" y="-495"/>
			<point x="506" y="-519" type="curve"/>
			<point x="492" y="-541"/>
			<point x="480" y="-564"/>
			<point x="480" y="-570" type="curve"/>
			<point x="480" y="-575"/>
			<point x="464" y="-580"/>
			<point x="445" y="-580" type="curve"/>
			<point x="417" y="-580"/>
			<point x="412" y="-577"/>
		</contour>
		<contour>
			<point x="262" y="-503" type="curve"/>
			<point x="262" y="-503" type="line"/>
			<point x="272" y="-494"/>
			<point x="280" y="-476"/>
			<point x="280" y="-463" type="curve"/>
			<point x="280" y="-435"/>
			<point x="247" y="-400"/>
			<point x="220" y="-400" type="curve"/>
			<point x="194" y="-400"/>
			<point x="160" y="-434"/>
			<point x="160" y="-460" type="curve"/>
			<point x="160" y="-486"/>
			<point x="194" y="-520"/>
			<point x="222" y="-520" type="curve"/>
			<point x="234" y="-520"/>
			<point x="252" y="-513"/>
		</contour>
	</outline>
</glyph>
<glyph name="w" format="2">
	<advance width="609"/>
	<unicode hex="0077"/>
	<outline>
		<contour>
			<point x="373" y="-502" type="curve"/>
			<point x="373" y="-502" type="line"/>
			<point x="334" y="-497"/>
			<point x="296" y="-475"/>
			<point x="268" y="-445" type="curve"/>
			<point x="255" y="-431"/>
			<point x="239" y="-408"/>
			<point x="230" y="-393" type="curve"/>
			<point x="224" y="-381" type="line"/>
			<point x="209" y="-409" type="line"/>
			<point x="194" y="-440"/>
			<point x="181" y="-459"/>
			<point x="168" y="-475" type="curve"/>
			<point x="158" y="-485" type="line"/>
			<point x="146" y="-485" type="line"/>
			<point x="131" y="-485"/>
			<point x="107" y="-480"/>
			<point x="102" y="-478" type="curve"/>
			<point x="98" y="-475"/>
			<point x="100" y="-468"/>
			<point x="112" y="-453" type="curve"/>
			<point x="151" y="-402"/>
			<point x="186" y="-335"/>
			<point x="192" y="-301" type="curve"/>
			<point x="196" y="-286"/>
			<point x="179" y="-242"/>
			<point x="161" y="-217" type="curve"/>
			<point x="145" y="-198"/>
			<point x="132" y="-189"/>
			<point x="98" y="-178" type="curve"/>
			<point x="77" y="-170" type="line"/>
			<point x="77" y="-162" type="line"/>
			<point x="77" y="-154"/>
			<point x="84" y="-148"/>
			<point x="101" y="-146" type="curve"/>
			<point x="121" y="-143"/>
			<point x="136" y="-145"/>
			<point x="156" y="-155" type="curve"/>
			<point x="184" y="-169"/>
			<point x="221" y="-202"/>
			<point x="234" y="-222" type="curve"/>
			<point x="243" y="-239"/>
			<point x="265" y="-288"/>
			<point x="284" y="-332" type="curve"/>
			<point x="290" y="-348"/>
			<point x="297" y="-361"/>
			<point x="298" y="-361" type="curve"/>
			<point x="298" y="-360"/>
			<point x="299" y="-352"/>
			<point x="299" y="-341" type="curve"/>
			<point x="299" y="-323"/>
			<point x="299" y="-322"/>
			<point x="304" y="-316" type="curve"/>
			<point x="309" y="-313" type="line"/>
			<point x="376" y="-320" type="line"/>
			<point x="443" y="-325" type="line"/>
			<point x="449" y="-332" type="line"/>
			<point x="453" y="-339"/>
			<point x="453" y="-345"/>
			<point x="447" y="-350" type="curve"/>
			<point x="443" y="-357" type="line"/>
			<point x="398" y="-355" type="line"/>
			<point x="373" y="-353"/>
			<point x="351" y="-352"/>
			<point x="351" y="-353" type="curve"/>
			<point x="349" y="-356"/>
			<point x="354" y="-420"/>
			<point x="357" y="-434" type="curve"/>
			<point x="361" y="-453"/>
			<point x="367" y="-459"/>
			<point x="376" y="-464" type="curve"/>
			<point x="387" y="-468"/>
			<point x="398" y="-477"/>
			<point x="403" y="-485" type="curve"/>
			<point x="407" y="-490"/>
			<point x="407" y="-492"/>
			<point x="399" y="-500" type="curve"/>
			<point x="396" y="-503"/>
			<point x="387" y="-504"/>
		</contour>
	</outline>
</glyph>
<glyph name="x" format="2">
	<advance width="739"/>
	<unicode hex="0078"/>
	<outline>
		<contour>
			<point x="368" y="-248" type="curve"/>
			<point x="368" y="-248" type="line"/>
			<point x="368" y="-247"/>
			<point x="367" y="-245"/>
			<point x="367" y="-242" type="curve"/>
			<point x="367" y="-239"/>
			<point x="389" y="-178"/>
			<point x="416" y="-107" type="curve"/>
			<point x="464" y="24" type="line"/>
			<point x="457" y="37" type="line"/>
			<point x="446" y="58"/>
			<point x="420" y="96"/>
			<point x="409" y="108" type="curve"/>
			<point x="396" y="121"/>
			<point x="385" y="128"/>
			<point x="375" y="130" type="curve"/>
			<point x="367" y="131"/>
			<point x="365" y="135"/>
			<point x="365" y="148" type="curve"/>
			<point x="365" y="162"/>
			<point x="368" y="170"/>
			<point x="378" y="179" type="curve"/>
			<point x="386" y="188"/>
			<point x="401" y="194"/>
			<point x="413" y="195" type="curve"/>
			<point x="420" y="196" type="line"/>
			<point x="453" y="155" type="line"/>
			<point x="483" y="120"/>
			<point x="488" y="115"/>
			<point x="493" y="115" type="curve"/>
			<point x="498" y="114"/>
			<point x="499" y="115"/>
			<point x="504" y="126" type="curve"/>
			<point x="507" y="133"/>
			<point x="516" y="152"/>
			<point x="524" y="168" type="curve"/>
			<point x="539" y="198"/>
			<point x="552" y="218"/>
			<point x="559" y="222" type="curve"/>
			<point x="561" y="223"/>
			<point x="568" y="223"/>
			<point x="576" y="223" type="curve"/>
			<point x="590" y="222" type="line"/>
			<point x="592" y="215" type="line"/>
			<point x="595" y="208" type="line"/>
			<point x="573" y="179" type="line"/>
			<point x="554" y="153"/>
			<point x="550" y="147"/>
			<point x="540" y="124" type="curve"/>
			<point x="526" y="93"/>
			<point x="524" y="86"/>
			<point x="525" y="68" type="curve"/>
			<point x="525" y="56"/>
			<point x="527" y="52"/>
			<point x="535" y="35" type="curve"/>
			<point x="540" y="24"/>
			<point x="548" y="8"/>
			<point x="553" y="0" type="curve"/>
			<point x="562" y="-17"/>
			<point x="589" y="-81"/>
			<point x="601" y="-118" type="curve"/>
			<point x="613" y="-154"/>
			<point x="618" y="-172"/>
			<point x="619" y="-190" type="curve"/>
			<point x="620" y="-210"/>
			<point x="618" y="-215"/>
			<point x="604" y="-223" type="curve"/>
			<point x="593" y="-230"/>
			<point x="583" y="-231"/>
			<point x="580" y="-226" type="curve"/>
			<point x="579" y="-224"/>
			<point x="567" y="-194"/>
			<point x="554" y="-159" type="curve"/>
			<point x="534" y="-107"/>
			<point x="526" y="-89"/>
			<point x="509" y="-55" type="curve"/>
			<point x="497" y="-33"/>
			<point x="487" y="-14"/>
			<point x="486" y="-14" type="curve"/>
			<point x="486" y="-14"/>
			<point x="467" y="-65"/>
			<point x="446" y="-128" type="curve"/>
			<point x="407" y="-243" type="line"/>
			<point x="395" y="-244" type="line"/>
			<point x="388" y="-244"/>
			<point x="380" y="-246"/>
			<point x="377" y="-247" type="curve"/>
			<point x="371" y="-249"/>
			<point x="370" y="-250"/>
		</contour>
		<contour>
			<point x="499" y="252" type="curve"/>
			<point x="499" y="252" type="line"/>
			<point x="489" y="243"/>
			<point x="483" y="242"/>
			<point x="467" y="250" type="curve"/>
			<point x="443" y="258"/>
			<point x="443" y="256"/>
			<point x="448" y="314" type="curve"/>
			<point x="449" y="342"/>
			<point x="453" y="366"/>
			<point x="453" y="371" type="curve"/>
			<point x="453" y="376" type="line"/>
			<point x="425" y="376" type="line"/>
			<point x="408" y="376"/>
			<point x="376" y="375"/>
			<point x="351" y="374" type="curve"/>
			<point x="300" y="372"/>
			<point x="289" y="372"/>
			<point x="285" y="381" type="curve"/>
			<point x="282" y="386"/>
			<point x="282" y="390"/>
			<point x="285" y="433" type="curve"/>
			<point x="287" y="460"/>
			<point x="289" y="486"/>
			<point x="289" y="493" type="curve"/>
			<point x="291" y="504" type="line"/>
			<point x="211" y="502" type="line"/>
			<point x="116" y="501"/>
			<point x="119" y="501"/>
			<point x="120" y="524" type="curve"/>
			<point x="123" y="535"/>
			<point x="125" y="540"/>
			<point x="130" y="545" type="curve"/>
			<point x="138" y="552" type="line"/>
			<point x="256" y="553" type="line"/>
			<point x="375" y="553" type="line"/>
			<point x="379" y="549" type="line"/>
			<point x="383" y="542"/>
			<point x="382" y="533"/>
			<point x="376" y="518" type="curve"/>
			<point x="368" y="502"/>
			<point x="364" y="484"/>
			<point x="362" y="447" type="curve"/>
			<point x="361" y="423" type="line"/>
			<point x="449" y="424" type="line"/>
			<point x="537" y="425" type="line"/>
			<point x="541" y="420" type="line"/>
			<point x="546" y="411"/>
			<point x="546" y="405"/>
			<point x="541" y="397" type="curve"/>
			<point x="530" y="381"/>
			<point x="526" y="361"/>
			<point x="524" y="321" type="curve"/>
			<point x="522" y="279"/>
			<point x="517" y="264"/>
		</contour>
	</outline>
</glyph>
<glyph name="y" format="2">
	<advance width="756"/>
	<unicode hex="0079"/>
	<outline>
		<contour>
			<point x="465" y="-425" type="curve"/>
			<point x="465" y="-425" type="line"/>
			<point x="451" y="-402"/>
			<point x="445" y="-351"/>
			<point x="440" y="-241" type="curve"/>
			<point x="437" y="-213"/>
			<point x="442" y="-209"/>
			<point x="426" y="-231" type="curve"/>
			<point x="411" y="-253"/>
			<point x="382" y="-298"/>
			<point x="370" y="-313" type="curve"/>
			<point x="344" y="-346"/>
			<point x="316" y="-367"/>
			<point x="299" y="-367" type="curve"/>
			<point x="290" y="-367"/>
			<point x="285" y="-360"/>
			<point x="264" y="-335" type="curve"/>
			<point x="263" y="-335"/>
			<point x="259" y="-340"/>
			<point x="253" y="-346" type="curve"/>
			<point x="236" y="-366"/>
			<point x="215" y="-374"/>
			<point x="182" y="-373" type="curve"/>
			<point x="116" y="-369"/>
			<point x="95" y="-308"/>
			<point x="101" y="-234" type="curve"/>
			<point x="107" y="-162"/>
			<point x="141" y="-125"/>
			<point x="199" y="-124" type="curve"/>
			<point x="229" y="-124"/>
			<point x="238" y="-144"/>
			<point x="238" y="-189" type="curve"/>
			<point x="238" y="-230"/>
			<point x="228" y="-241"/>
			<point x="215" y="-193" type="curve"/>
			<point x="211" y="-180"/>
			<point x="198" y="-169"/>
			<point x="186" y="-169" type="curve"/>
			<point x="168" y="-169"/>
			<point x="157" y="-185"/>
			<point x="152" y="-236" type="curve"/>
			<point x="147" y="-286"/>
			<point x="137" y="-335"/>
			<point x="192" y="-335" type="curve"/>
			<point x="208" y="-335"/>
			<point x="232" y="-319"/>
			<point x="241" y="-301" type="curve"/>
			<point x="249" y="-285"/>
			<point x="250" y="-275"/>
			<point x="250" y="-206" type="curve"/>
			<point x="250" y="-145"/>
			<point x="250" y="-140"/>
			<point x="253" y="-135" type="curve"/>
			<point x="259" y="-125"/>
			<point x="263" y="-123"/>
			<point x="289" y="-123" type="curve"/>
			<point x="321" y="-123"/>
			<point x="307" y="-116"/>
			<point x="304" y="-222" type="curve"/>
			<point x="303" y="-255"/>
			<point x="299" y="-283"/>
			<point x="301" y="-286" type="curve"/>
			<point x="326" y="-324"/>
			<point x="325" y="-305"/>
			<point x="349" y="-274" type="curve"/>
			<point x="392" y="-219"/>
			<point x="417" y="-188"/>
			<point x="432" y="-178" type="curve"/>
			<point x="439" y="-173"/>
			<point x="442" y="-172"/>
			<point x="451" y="-172" type="curve"/>
			<point x="478" y="-172"/>
			<point x="492" y="-190"/>
			<point x="492" y="-237" type="curve"/>
			<point x="492" y="-266"/>
			<point x="489" y="-308"/>
			<point x="493" y="-303" type="curve"/>
			<point x="497" y="-297"/>
			<point x="529" y="-247"/>
			<point x="552" y="-211" type="curve"/>
			<point x="570" y="-181"/>
			<point x="575" y="-177"/>
			<point x="591" y="-170" type="curve"/>
			<point x="607" y="-163"/>
			<point x="635" y="-167"/>
			<point x="645" y="-177" type="curve"/>
			<point x="662" y="-195"/>
			<point x="659" y="-275"/>
			<point x="640" y="-301" type="curve"/>
			<point x="632" y="-313"/>
			<point x="616" y="-319"/>
			<point x="601" y="-316" type="curve"/>
			<point x="591" y="-313"/>
			<point x="585" y="-307"/>
			<point x="585" y="-292" type="curve"/>
			<point x="585" y="-270"/>
			<point x="596" y="-280"/>
			<point x="596" y="-262" type="curve"/>
			<point x="596" y="-240"/>
			<point x="587" y="-246"/>
			<point x="575" y="-263" type="curve"/>
			<point x="555" y="-290"/>
			<point x="531" y="-334"/>
			<point x="504" y="-389" type="curve"/>
			<point x="493" y="-413"/>
			<point x="478" y="-446"/>
		</contour>
	</outline>
</glyph>
<glyph name="z" format="2">
	<advance width="908"/>
	<unicode hex="007A"/>
	<outline>
		<contour>
			<point x="537" y="-248" type="curve"/>
			<point x="537" y="-248" type="line"/>
			<point x="537" y="-247"/>
			<point x="536" y="-245"/>
			<point x="536" y="-242" type="curve"/>
			<point x="536" y="-239"/>
			<point x="558" y="-178"/>
			<point x="585" y="-107" type="curve"/>
			<point x="633" y="24" type="line"/>
			<point x="626" y="37" type="line"/>
			<point x="615" y="58"/>
			<point x="589" y="96"/>
			<point x="578" y="108" type="curve"/>
			<point x="565" y="121"/>
			<point x="554" y="128"/>
			<point x="544" y="130" type="curve"/>
			<point x="536" y="131"/>
			<point x="534" y="135"/>
			<point x="534" y="148" type="curve"/>
			<point x="534" y="162"/>
			<point x="537" y="170"/>
			<point x="547" y="179" type="curve"/>
			<point x="555" y="188"/>
			<point x="570" y="194"/>
			<point x="582" y="195" type="curve"/>
			<point x="589" y="196" type="line"/>
			<point x="622" y="155" type="line"/>
			<point x="652" y="120"/>
			<point x="657" y="115"/>
			<point x="662" y="115" type="curve"/>
			<point x="667" y="114"/>
			<point x="668" y="115"/>
			<point x="673" y="126" type="curve"/>
			<point x="676" y="133"/>
			<point x="685" y="152"/>
			<point x="693" y="168" type="curve"/>
			<point x="708" y="198"/>
			<point x="721" y="218"/>
			<point x="728" y="222" type="curve"/>
			<point x="730" y="223"/>
			<point x="737" y="223"/>
			<point x="745" y="223" type="curve"/>
			<point x="759" y="222" type="line"/>
			<point x="761" y="215" type="line"/>
			<point x="764" y="208" type="line"/>
			<point x="742" y="179" type="line"/>
			<point x="723" y="153"/>
			<point x="719" y="147"/>
			<point x="709" y="124" type="curve"/>
			<point x="695" y="93"/>
			<point x="693" y="86"/>
			<point x="694" y="68" type="curve"/>
			<point x="694" y="56"/>
			<point x="696" y="52"/>
			<point x="704" y="35" type="curve"/>
			<point x="709" y="24"/>
			<point x="717" y="8"/>
			<point x="722" y="0" type="curve"/>
			<point x="731" y="-17"/>
			<point x="758" y="-81"/>
			<point x="770" y="-118" type="curve"/>
			<point x="782" y="-154"/>
			<point x="787" y="-172"/>
			<point x="788" y="-190" type="curve"/>
			<point x="789" y="-210"/>
			<point x="787" y="-215"/>
			<point x="773" y="-223" type="curve"/>
			<point x="762" y="-230"/>
			<point x="752" y="-231"/>
			<point x="749" y="-226" type="curve"/>
			<point x="748" y="-224"/>
			<point x="736" y="-194"/>
			<point x="723" y="-159" type="curve"/>
			<point x="703" y="-107"/>
			<point x="695" y="-89"/>
			<point x="678" y="-55" type="curve"/>
			<point x="666" y="-33"/>
			<point x="656" y="-14"/>
			<point x="655" y="-14" type="curve"/>
			<point x="655" y="-14"/>
			<point x="636" y="-65"/>
			<point x="615" y="-128" type="curve"/>
			<point x="576" y="-243" type="line"/>
			<point x="564" y="-244" type="line"/>
			<point x="557" y="-244"/>
			<point x="549" y="-246"/>
			<point x="546" y="-247" type="curve"/>
			<point x="540" y="-249"/>
			<point x="539" y="-250"/>
		</contour>
		<contour>
			<point x="710" y="420" type="curve"/>
			<point x="710" y="420" type="line"/>
			<point x="706" y="425" type="line"/>
			<point x="530" y="423" type="line"/>
			<point x="531" y="447" type="line" smooth="yes"/>
			<point x="533" y="484"/>
			<point x="537" y="502"/>
			<point x="545" y="518" type="curve"/>
			<point x="551" y="533"/>
			<point x="552" y="542"/>
			<point x="548" y="549" type="curve"/>
			<point x="544" y="553" type="line"/>
			<point x="370" y="553" type="line"/>
			<point x="371" y="560"/>
			<point x="371" y="570"/>
			<point x="372" y="581" type="curve"/>
			<point x="374" y="617"/>
			<point x="379" y="640"/>
			<point x="386" y="657" type="curve"/>
			<point x="393" y="670"/>
			<point x="394" y="682"/>
			<point x="389" y="688" type="curve"/>
			<point x="386" y="693" type="line"/>
			<point x="330" y="691" type="line" smooth="yes"/>
			<point x="274" y="689"/>
			<point x="182" y="689"/>
			<point x="153" y="690" type="curve"/>
			<point x="140" y="691"/>
			<point x="137" y="691"/>
			<point x="133" y="687" type="curve"/>
			<point x="125" y="682"/>
			<point x="122" y="674"/>
			<point x="120" y="661" type="curve"/>
			<point x="119" y="650"/>
			<point x="120" y="649"/>
			<point x="124" y="645" type="curve"/>
			<point x="133" y="636"/>
			<point x="145" y="635"/>
			<point x="194" y="640" type="curve"/>
			<point x="203" y="641"/>
			<point x="230" y="642"/>
			<point x="255" y="642" type="curve"/>
			<point x="296" y="642"/>
			<point x="299" y="642"/>
			<point x="299" y="639" type="curve"/>
			<point x="299" y="637"/>
			<point x="297" y="610"/>
			<point x="294" y="579" type="curve"/>
			<point x="290" y="529" type="line"/>
			<point x="290" y="527"/>
			<point x="289" y="526"/>
			<point x="289" y="524" type="curve"/>
			<point x="288" y="501"/>
			<point x="285" y="501"/>
			<point x="380" y="502" type="curve"/>
			<point x="460" y="504" type="line"/>
			<point x="458" y="493" type="line"/>
			<point x="458" y="486"/>
			<point x="456" y="460"/>
			<point x="454" y="433" type="curve"/>
			<point x="451" y="390"/>
			<point x="451" y="386"/>
			<point x="454" y="381" type="curve"/>
			<point x="458" y="372"/>
			<point x="469" y="372"/>
			<point x="520" y="374" type="curve"/>
			<point x="545" y="375"/>
			<point x="577" y="376"/>
			<point x="594" y="376" type="curve"/>
			<point x="622" y="376" type="line"/>
			<point x="622" y="371" type="line" smooth="yes"/>
			<point x="622" y="366"/>
			<point x="618" y="342"/>
			<point x="617" y="314" type="curve"/>
			<point x="612" y="256"/>
			<point x="612" y="258"/>
			<point x="636" y="250" type="curve"/>
			<point x="652" y="242"/>
			<point x="658" y="243"/>
			<point x="668" y="252" type="curve"/>
			<point x="686" y="264"/>
			<point x="691" y="279"/>
			<point x="693" y="321" type="curve"/>
			<point x="695" y="361"/>
			<point x="699" y="381"/>
			<point x="710" y="397" type="curve"/>
			<point x="715" y="405"/>
			<point x="715" y="411"/>
		</contour>
	</outline>
</glyph>
<glyph name="bar" format="2">
	<advance width="0"/>
	<unicode hex="007C"/>
	<outline>
		<contour>
			<point x="-356" y="288" type="curve"/>
			<point x="-356" y="288" type="line"/>
			<point x="-365" y="288"/>
			<point x="-366" y="319"/>
			<point x="-368" y="354" type="curve"/>
			<point x="-368" y="418"/>
			<point x="-366" y="503"/>
			<point x="-363" y="509" type="curve"/>
			<point x="-362" y="511"/>
			<point x="-360" y="512"/>
			<point x="-358" y="513" type="curve"/>
			<point x="-354" y="515"/>
			<point x="-347" y="515"/>
			<point x="-344" y="511" type="curve"/>
			<point x="-333" y="496"/>
			<point x="-335" y="484"/>
			<point x="-334" y="345" type="curve"/>
			<point x="-334" y="305"/>
			<point x="-334" y="302"/>
			<point x="-339" y="297" type="curve"/>
			<point x="-343" y="293"/>
			<point x="-352" y="288"/>
		</contour>
	</outline>
</glyph>
<glyph name="asciitilde" format="2">
	<advance width="0"/>
	<unicode hex="007E"/>
	<outline>
		<contour>
			<point x="-47" y="283" type="curve"/>
			<point x="-47" y="283" type="line"/>
			<point x="-16" y="345"/>
			<point x="4" y="367"/>
			<point x="20" y="353" type="curve"/>
			<point x="40" y="337"/>
			<point x="34" y="321"/>
			<point x="-11" y="277" type="curve"/>
			<point x="-70" y="220"/>
			<point x="-79" y="220"/>
		</contour>
	</outline>
</glyph>
<glyph name="quotedblleft" format="2">
	<advance width="1361"/>
	<unicode hex="201C"/>
	<outline>
		<contour>
			<point x="967" y="-117" type="curve"/>
			<point x="967" y="-117" type="line"/>
			<point x="966" y="-117"/>
			<point x="967" y="-116"/>
			<point x="968" y="-115" type="curve"/>
			<point x="969" y="-115"/>
			<point x="990" y="-107"/>
			<point x="1016" y="-98" type="curve"/>
			<point x="1063" y="-80" type="line"/>
			<point x="1076" y="-66" type="line"/>
			<point x="1089" y="-53" type="line"/>
			<point x="1096" y="-34" type="line"/>
			<point x="1104" y="-14" type="line"/>
			<point x="1100" y="10" type="line"/>
			<point x="1098" y="23"/>
			<point x="1096" y="37"/>
			<point x="1095" y="42" type="curve"/>
			<point x="1092" y="50"/>
			<point x="1092" y="55"/>
			<point x="1094" y="66" type="curve"/>
			<point x="1096" y="74"/>
			<point x="1097" y="76"/>
			<point x="1108" y="90" type="curve"/>
			<point x="1114" y="98"/>
			<point x="1120" y="105"/>
			<point x="1121" y="106" type="curve"/>
			<point x="1121" y="107"/>
			<point x="1131" y="109"/>
			<point x="1143" y="112" type="curve"/>
			<point x="1164" y="117" type="line"/>
			<point x="1186" y="115" type="line"/>
			<point x="1199" y="115"/>
			<point x="1210" y="113"/>
			<point x="1210" y="113" type="curve"/>
			<point x="1214" y="111"/>
			<point x="1209" y="95"/>
			<point x="1202" y="85" type="curve"/>
			<point x="1200" y="80"/>
			<point x="1198" y="75"/>
			<point x="1196" y="66" type="curve"/>
			<point x="1193" y="52" type="line"/>
			<point x="1197" y="35" type="line"/>
			<point x="1199" y="26"/>
			<point x="1202" y="13"/>
			<point x="1202" y="6" type="curve"/>
			<point x="1204" y="-6" type="line"/>
			<point x="1194" y="-25" type="line"/>
			<point x="1185" y="-44"/>
			<point x="1184" y="-45"/>
			<point x="1171" y="-58" type="curve"/>
			<point x="1159" y="-71"/>
			<point x="1156" y="-73"/>
			<point x="1139" y="-83" type="curve"/>
			<point x="1120" y="-93" type="line"/>
			<point x="1087" y="-101" type="line"/>
			<point x="1061" y="-106"/>
			<point x="1043" y="-109"/>
			<point x="1011" y="-113" type="curve"/>
			<point x="963" y="-120"/>
			<point x="968" y="-119"/>
		</contour>
		<contour>
			<point x="524" y="-73" type="curve"/>
			<point x="524" y="-73" type="line"/>
			<point x="507" y="-71"/>
			<point x="493" y="-69"/>
			<point x="491" y="-68" type="curve"/>
			<point x="490" y="-67"/>
			<point x="470" y="-53"/>
			<point x="448" y="-37" type="curve"/>
			<point x="400" y="-2"/>
			<point x="389" y="8"/>
			<point x="371" y="37" type="curve"/>
			<point x="365" y="46"/>
			<point x="359" y="55"/>
			<point x="358" y="55" type="curve"/>
			<point x="358" y="56"/>
			<point x="354" y="50"/>
			<point x="349" y="41" type="curve"/>
			<point x="344" y="31"/>
			<point x="333" y="16"/>
			<point x="315" y="-8" type="curve"/>
			<point x="291" y="-40"/>
			<point x="289" y="-42"/>
			<point x="278" y="-51" type="curve"/>
			<point x="266" y="-59" type="line"/>
			<point x="233" y="-53" type="line"/>
			<point x="215" y="-50"/>
			<point x="200" y="-47"/>
			<point x="199" y="-47" type="curve"/>
			<point x="198" y="-46"/>
			<point x="219" y="-21"/>
			<point x="245" y="9" type="curve"/>
			<point x="298" y="71"/>
			<point x="302" y="76"/>
			<point x="314" y="110" type="curve"/>
			<point x="323" y="133" type="line"/>
			<point x="313" y="151" type="line"/>
			<point x="300" y="179"/>
			<point x="292" y="189"/>
			<point x="262" y="210" type="curve"/>
			<point x="240" y="226"/>
			<point x="239" y="226"/>
			<point x="225" y="230" type="curve"/>
			<point x="217" y="232"/>
			<point x="197" y="236"/>
			<point x="181" y="238" type="curve"/>
			<point x="165" y="241"/>
			<point x="151" y="243"/>
			<point x="150" y="244" type="curve"/>
			<point x="149" y="245"/>
			<point x="154" y="248"/>
			<point x="166" y="255" type="curve"/>
			<point x="184" y="264" type="line"/>
			<point x="222" y="262" type="line"/>
			<point x="261" y="261"/>
			<point x="261" y="261"/>
			<point x="276" y="256" type="curve"/>
			<point x="301" y="248"/>
			<point x="315" y="240"/>
			<point x="342" y="220" type="curve"/>
			<point x="360" y="205"/>
			<point x="367" y="199"/>
			<point x="373" y="191" type="curve"/>
			<point x="378" y="185"/>
			<point x="401" y="149"/>
			<point x="424" y="112" type="curve"/>
			<point x="466" y="44" type="line"/>
			<point x="466" y="74" type="line"/>
			<point x="466" y="91"/>
			<point x="467" y="105"/>
			<point x="468" y="106" type="curve"/>
			<point x="469" y="107"/>
			<point x="711" y="78"/>
			<point x="713" y="76" type="curve"/>
			<point x="715" y="74"/>
			<point x="710" y="50"/>
			<point x="707" y="49" type="curve"/>
			<point x="707" y="48"/>
			<point x="667" y="52"/>
			<point x="620" y="58" type="curve"/>
			<point x="572" y="63"/>
			<point x="533" y="67"/>
			<point x="532" y="66" type="curve"/>
			<point x="527" y="65"/>
			<point x="527" y="50"/>
			<point x="532" y="17" type="curve"/>
			<point x="534" y="0"/>
			<point x="537" y="-16"/>
			<point x="537" y="-18" type="curve"/>
			<point x="537" y="-20"/>
			<point x="543" y="-25"/>
			<point x="564" y="-40" type="curve"/>
			<point x="589" y="-59"/>
			<point x="596" y="-65"/>
			<point x="596" y="-72" type="curve"/>
			<point x="597" y="-75"/>
			<point x="596" y="-75"/>
			<point x="585" y="-76" type="curve"/>
			<point x="566" y="-78"/>
			<point x="555" y="-77"/>
		</contour>
		<contour>
			<point x="717" y="-50" type="curve"/>
			<point x="717" y="-50" type="line"/>
			<point x="709" y="-46"/>
			<point x="701" y="-41"/>
			<point x="700" y="-40" type="curve"/>
			<point x="699" y="-39"/>
			<point x="697" y="-32"/>
			<point x="696" y="-18" type="curve"/>
			<point x="693" y="3" type="line"/>
			<point x="700" y="20" type="line"/>
			<point x="707" y="35"/>
			<point x="707" y="36"/>
			<point x="728" y="62" type="curve"/>
			<point x="758" y="97"/>
			<point x="772" y="118"/>
			<point x="777" y="135" type="curve"/>
			<point x="779" y="142"/>
			<point x="781" y="148"/>
			<point x="781" y="148" type="curve"/>
			<point x="780" y="148"/>
			<point x="755" y="150"/>
			<point x="725" y="153" type="curve"/>
			<point x="669" y="158"/>
			<point x="590" y="168"/>
			<point x="588" y="171" type="curve"/>
			<point x="587" y="172"/>
			<point x="585" y="178"/>
			<point x="584" y="185" type="curve"/>
			<point x="582" y="197"/>
			<point x="582" y="199"/>
			<point x="584" y="200" type="curve"/>
			<point x="587" y="203"/>
			<point x="607" y="204"/>
			<point x="652" y="205" type="curve"/>
			<point x="694" y="206"/>
			<point x="706" y="205"/>
			<point x="788" y="201" type="curve"/>
			<point x="877" y="195" type="line"/>
			<point x="890" y="189" type="line"/>
			<point x="897" y="185"/>
			<point x="907" y="178"/>
			<point x="913" y="174" type="curve"/>
			<point x="923" y="166" type="line"/>
			<point x="922" y="158" type="line"/>
			<point x="922" y="153"/>
			<point x="921" y="148"/>
			<point x="920" y="147" type="curve"/>
			<point x="919" y="147"/>
			<point x="910" y="144"/>
			<point x="901" y="142" type="curve"/>
			<point x="883" y="138" type="line"/>
			<point x="858" y="139" type="line"/>
			<point x="841" y="141"/>
			<point x="833" y="141"/>
			<point x="832" y="140" type="curve"/>
			<point x="832" y="139"/>
			<point x="826" y="124"/>
			<point x="821" y="107" type="curve"/>
			<point x="815" y="89"/>
			<point x="807" y="68"/>
			<point x="803" y="59" type="curve"/>
			<point x="796" y="42"/>
			<point x="796" y="42"/>
			<point x="795" y="25" type="curve"/>
			<point x="795" y="10"/>
			<point x="795" y="8"/>
			<point x="798" y="3" type="curve"/>
			<point x="799" y="0"/>
			<point x="801" y="-3"/>
			<point x="801" y="-3" type="curve"/>
			<point x="802" y="-3"/>
			<point x="808" y="-1"/>
			<point x="814" y="1" type="curve"/>
			<point x="826" y="3"/>
			<point x="829" y="5"/>
			<point x="868" y="30" type="curve"/>
			<point x="907" y="55"/>
			<point x="910" y="57"/>
			<point x="922" y="70" type="curve"/>
			<point x="933" y="82"/>
			<point x="935" y="83"/>
			<point x="962" y="99" type="curve"/>
			<point x="991" y="116" type="line"/>
			<point x="1010" y="119" type="line"/>
			<point x="1030" y="122" type="line"/>
			<point x="1046" y="117" type="line"/>
			<point x="1055" y="114"/>
			<point x="1064" y="111"/>
			<point x="1066" y="110" type="curve"/>
			<point x="1068" y="109"/>
			<point x="1070" y="104"/>
			<point x="1073" y="91" type="curve"/>
			<point x="1078" y="73"/>
			<point x="1078" y="73"/>
			<point x="1077" y="61" type="curve"/>
			<point x="1070" y="11"/>
			<point x="1037" y="-29"/>
			<point x="989" y="-44" type="curve"/>
			<point x="974" y="-49"/>
			<point x="959" y="-51"/>
			<point x="940" y="-50" type="curve"/>
			<point x="924" y="-50" type="line"/>
			<point x="910" y="-43" type="line"/>
			<point x="902" y="-39"/>
			<point x="895" y="-35"/>
			<point x="894" y="-34" type="curve"/>
			<point x="892" y="-32"/>
			<point x="889" y="-25"/>
			<point x="886" y="-17" type="curve"/>
			<point x="884" y="-9"/>
			<point x="881" y="-1"/>
			<point x="880" y="-1" type="curve"/>
			<point x="880" y="0"/>
			<point x="875" y="-1"/>
			<point x="868" y="-3" type="curve"/>
			<point x="860" y="-5"/>
			<point x="854" y="-8"/>
			<point x="844" y="-14" type="curve"/>
			<point x="822" y="-27"/>
			<point x="772" y="-50"/>
			<point x="752" y="-55" type="curve"/>
			<point x="744" y="-57"/>
			<point x="736" y="-59"/>
			<point x="735" y="-59" type="curve"/>
			<point x="734" y="-59"/>
			<point x="726" y="-55"/>
		</contour>
		<contour>
			<point x="997" y="-7" type="curve"/>
			<point x="997" y="-7" type="line"/>
			<point x="1007" y="0"/>
			<point x="1014" y="7"/>
			<point x="1022" y="16" type="curve"/>
			<point x="1034" y="29" type="line"/>
			<point x="1039" y="48" type="line"/>
			<point x="1041" y="59"/>
			<point x="1044" y="73"/>
			<point x="1045" y="81" type="curve"/>
			<point x="1047" y="95" type="line"/>
			<point x="1041" y="96" type="line"/>
			<point x="1035" y="98" type="line"/>
			<point x="1010" y="73" type="line"/>
			<point x="984" y="48" type="line"/>
			<point x="977" y="32" type="line"/>
			<point x="970" y="15"/>
			<point x="969" y="12"/>
			<point x="971" y="-5" type="curve"/>
			<point x="972" y="-13"/>
			<point x="972" y="-13"/>
			<point x="976" y="-14" type="curve"/>
			<point x="983" y="-16"/>
			<point x="984" y="-16"/>
		</contour>
	</outline>
</glyph>
<glyph name="_part.apostrophoi" format="2">
	<advance width="550"/>
	<outline>
		<contour>
			<point x="174" y="372" type="curve"/>
			<point x="174" y="372" type="line"/>
			<point x="155" y="377"/>
			<point x="159" y="389"/>
			<point x="183" y="393" type="curve"/>
			<point x="196" y="395"/>
			<point x="207" y="403"/>
			<point x="207" y="413" type="curve"/>
			<point x="207" y="429"/>
			<point x="190" y="438"/>
			<point x="138" y="446" type="curve"/>
			<point x="97" y="452"/>
			<point x="86" y="472"/>
			<point x="123" y="472" type="curve"/>
			<point x="158" y="472"/>
			<point x="232" y="454"/>
			<point x="254" y="440" type="curve"/>
			<point x="275" y="426"/>
			<point x="279" y="399"/>
			<point x="262" y="383" type="curve"/>
			<point x="250" y="373"/>
			<point x="196" y="366"/>
		</contour>
		<contour>
			<point x="351" y="372" type="curve"/>
			<point x="351" y="372" type="line"/>
			<point x="332" y="377"/>
			<point x="336" y="389"/>
			<point x="360" y="393" type="curve"/>
			<point x="373" y="395"/>
			<point x="384" y="403"/>
			<point x="384" y="413" type="curve"/>
			<point x="384" y="429"/>
			<point x="367" y="438"/>
			<point x="315" y="446" type="curve"/>
			<point x="274" y="452"/>
			<point x="263" y="472"/>
			<point x="300" y="472" type="curve"/>
			<point x="335" y="472"/>
			<point x="409" y="454"/>
			<point x="431" y="440" type="curve"/>
			<point x="452" y="426"/>
			<point x="456" y="399"/>
			<point x="439" y="383" type="curve"/>
			<point x="427" y="373"/>
			<point x="373" y="366"/>
		</contour>
	</outline>
</glyph>
<glyph name="_part.diple" format="2">
	<advance width="354"/>
	<outline>
		<contour>
			<point x="1" y="44" type="curve"/>
			<point x="1" y="44" type="line"/>
			<point x="1" y="49"/>
			<point x="8" y="56"/>
			<point x="16" y="59" type="curve"/>
			<point x="25" y="62"/>
			<point x="36" y="78"/>
			<point x="42" y="95" type="curve"/>
			<point x="53" y="125"/>
			<point x="54" y="125"/>
			<point x="119" y="125" type="curve"/>
			<point x="170" y="125"/>
			<point x="182" y="122"/>
			<point x="168" y="114" type="curve"/>
			<point x="159" y="109"/>
			<point x="144" y="88"/>
			<point x="136" y="69" type="curve"/>
			<point x="122" y="36"/>
			<point x="121" y="35"/>
			<point x="62" y="35" type="curve"/>
			<point x="28" y="35"/>
			<point x="1" y="39"/>
		</contour>
		<contour>
			<point x="181" y="44" type="curve"/>
			<point x="181" y="44" type="line"/>
			<point x="181" y="49"/>
			<point x="188" y="56"/>
			<point x="196" y="59" type="curve"/>
			<point x="205" y="62"/>
			<point x="216" y="78"/>
			<point x="222" y="95" type="curve"/>
			<point x="233" y="125"/>
			<point x="234" y="125"/>
			<point x="299" y="125" type="curve"/>
			<point x="350" y="125"/>
			<point x="362" y="122"/>
			<point x="348" y="114" type="curve"/>
			<point x="339" y="109"/>
			<point x="324" y="88"/>
			<point x="316" y="69" type="curve"/>
			<point x="302" y="36"/>
			<point x="301" y="35"/>
			<point x="242" y="35" type="curve"/>
			<point x="208" y="35"/>
			<point x="181" y="39"/>
		</contour>
	</outline>
</glyph>
<glyph name="_part.hypsele" format="2">
	<advance width="492"/>
	<outline>
		<contour>
			<point x="227" y="309" type="curve"/>
			<point x="227" y="309" type="line"/>
			<point x="113" y="363" type="line"/>
			<point x="140" y="368" type="line" smooth="yes"/>
			<point x="155" y="370"/>
			<point x="180" y="380"/>
			<point x="198" y="390" type="curve"/>
			<point x="244" y="417"/>
			<point x="260" y="452"/>
			<point x="268" y="537" type="curve"/>
			<point x="274" y="610"/>
			<point x="288" y="647"/>
			<point x="315" y="660" type="curve"/>
			<point x="336" y="671"/>
			<point x="350" y="671"/>
			<point x="366" y="660" type="curve"/>
			<point x="381" y="649"/>
			<point x="384" y="620"/>
			<point x="371" y="612" type="curve"/>
			<point x="352" y="601"/>
			<point x="345" y="577"/>
			<point x="342" y="517" type="curve"/>
			<point x="340" y="483"/>
			<point x="336" y="447"/>
			<point x="332" y="438" type="curve"/>
			<point x="317" y="401"/>
			<point x="265" y="361"/>
			<point x="215" y="350" type="curve"/>
			<point x="195" y="346" type="line"/>
			<point x="221" y="338" type="line" smooth="yes"/>
			<point x="252" y="329"/>
			<point x="293" y="306"/>
			<point x="293" y="298" type="curve"/>
			<point x="295" y="286"/>
			<point x="268" y="289"/>
		</contour>
	</outline>
</glyph>
<glyph name="_part.jump_two" format="2">
	<advance width="922"/>
	<outline>
		<contour>
			<point x="808" y="-50" type="curve"/>
			<point x="808" y="-50" type="line"/>
			<point x="803" y="-46"/>
			<point x="781" y="-39"/>
			<point x="766" y="-36" type="curve"/>
			<point x="736" y="-28"/>
			<point x="706" y="-24"/>
			<point x="659" y="-21" type="curve"/>
			<point x="629" y="-19"/>
			<point x="476" y="-21"/>
			<point x="393" y="-23" type="curve"/>
			<point x="333" y="-25"/>
			<point x="282" y="-21"/>
			<point x="230" y="-12" type="curve"/>
			<point x="153" y="3"/>
			<point x="106" y="29"/>
			<point x="100" y="63" type="curve"/>
			<point x="98" y="79"/>
			<point x="108" y="88"/>
			<point x="118" y="81" type="curve"/>
			<point x="137" y="71"/>
			<point x="184" y="63"/>
			<point x="232" y="56" type="curve"/>
			<point x="266" y="52"/>
			<point x="374" y="53"/>
			<point x="492" y="56" type="curve"/>
			<point x="603" y="60"/>
			<point x="633" y="59"/>
			<point x="655" y="56" type="curve"/>
			<point x="715" y="47"/>
			<point x="766" y="23"/>
			<point x="811" y="-15" type="curve"/>
			<point x="828" y="-29"/>
			<point x="823" y="-60"/>
		</contour>
		<contour>
			<point x="695" y="-183" type="curve"/>
			<point x="695" y="-183" type="line"/>
			<point x="677" y="-178"/>
			<point x="668" y="-164"/>
			<point x="658" y="-133" type="curve"/>
			<point x="645" y="-90"/>
			<point x="642" y="-83"/>
			<point x="632" y="-80" type="curve"/>
			<point x="626" y="-78"/>
			<point x="622" y="-74"/>
			<point x="623" y="-71" type="curve"/>
			<point x="625" y="-63"/>
			<point x="649" y="-61"/>
			<point x="675" y="-64" type="curve"/>
			<point x="705" y="-68"/>
			<point x="713" y="-77"/>
			<point x="725" y="-118" type="curve"/>
			<point x="738" y="-160"/>
			<point x="742" y="-166"/>
			<point x="750" y="-169" type="curve"/>
			<point x="758" y="-172"/>
			<point x="760" y="-180"/>
			<point x="751" y="-185" type="curve"/>
			<point x="743" y="-188"/>
			<point x="710" y="-187"/>
		</contour>
		<contour>
			<point x="581" y="-183" type="curve"/>
			<point x="581" y="-183" type="line"/>
			<point x="563" y="-178"/>
			<point x="553" y="-164"/>
			<point x="544" y="-133" type="curve"/>
			<point x="531" y="-90"/>
			<point x="527" y="-84"/>
			<point x="517" y="-80" type="curve"/>
			<point x="511" y="-77"/>
			<point x="507" y="-74"/>
			<point x="509" y="-71" type="curve"/>
			<point x="512" y="-63"/>
			<point x="534" y="-61"/>
			<point x="560" y="-64" type="curve"/>
			<point x="590" y="-68"/>
			<point x="599" y="-77"/>
			<point x="611" y="-118" type="curve"/>
			<point x="624" y="-160"/>
			<point x="627" y="-166"/>
			<point x="635" y="-169" type="curve"/>
			<point x="644" y="-172"/>
			<point x="645" y="-180"/>
			<point x="636" y="-185" type="curve"/>
			<point x="628" y="-188"/>
			<point x="596" y="-187"/>
		</contour>
	</outline>
</glyph>
<glyph name="_part.jump_two_long" format="2">
	<advance width="1184"/>
	<outline>
		<contour>
			<point x="1023" y="-10" type="curve"/>
			<point x="1023" y="-10" type="line"/>
			<point x="1018" y="-8"/>
			<point x="993" y="-1"/>
			<point x="977" y="2" type="curve"/>
			<point x="944" y="8"/>
			<point x="911" y="12"/>
			<point x="859" y="15" type="curve"/>
			<point x="826" y="16"/>
			<point x="560" y="16"/>
			<point x="468" y="13" type="curve"/>
			<point x="403" y="12"/>
			<point x="346" y="16"/>
			<point x="290" y="23" type="curve"/>
			<point x="204" y="35"/>
			<point x="153" y="59"/>
			<point x="146" y="89" type="curve"/>
			<point x="143" y="102"/>
			<point x="155" y="110"/>
			<point x="165" y="105" type="curve"/>
			<point x="186" y="95"/>
			<point x="238" y="89"/>
			<point x="292" y="83" type="curve"/>
			<point x="329" y="79"/>
			<point x="448" y="80"/>
			<point x="578" y="83" type="curve"/>
			<point x="701" y="85"/>
			<point x="830" y="86"/>
			<point x="855" y="83" type="curve"/>
			<point x="921" y="75"/>
			<point x="977" y="54"/>
			<point x="1026" y="21" type="curve"/>
			<point x="1045" y="8"/>
			<point x="1039" y="-20"/>
		</contour>
		<contour>
			<point x="959" y="-153" type="curve"/>
			<point x="959" y="-153" type="line"/>
			<point x="941" y="-148"/>
			<point x="932" y="-134"/>
			<point x="922" y="-103" type="curve"/>
			<point x="908" y="-60"/>
			<point x="906" y="-53"/>
			<point x="896" y="-50" type="curve"/>
			<point x="890" y="-48"/>
			<point x="886" y="-44"/>
			<point x="887" y="-41" type="curve"/>
			<point x="890" y="-33"/>
			<point x="913" y="-31"/>
			<point x="939" y="-34" type="curve"/>
			<point x="969" y="-37"/>
			<point x="977" y="-47"/>
			<point x="989" y="-88" type="curve"/>
			<point x="1001" y="-130"/>
			<point x="1006" y="-136"/>
			<point x="1014" y="-139" type="curve"/>
			<point x="1022" y="-142"/>
			<point x="1024" y="-150"/>
			<point x="1015" y="-155" type="curve"/>
			<point x="1008" y="-159"/>
			<point x="974" y="-157"/>
		</contour>
		<contour>
			<point x="845" y="-153" type="curve"/>
			<point x="845" y="-153" type="line"/>
			<point x="827" y="-148"/>
			<point x="817" y="-134"/>
			<point x="808" y="-103" type="curve"/>
			<point x="795" y="-60"/>
			<point x="791" y="-53"/>
			<point x="781" y="-50" type="curve"/>
			<point x="775" y="-48"/>
			<point x="771" y="-44"/>
			<point x="773" y="-41" type="curve"/>
			<point x="778" y="-34"/>
			<point x="798" y="-31"/>
			<point x="824" y="-34" type="curve"/>
			<point x="854" y="-37"/>
			<point x="863" y="-47"/>
			<point x="875" y="-88" type="curve"/>
			<point x="887" y="-130"/>
			<point x="891" y="-136"/>
			<point x="899" y="-139" type="curve"/>
			<point x="908" y="-142"/>
			<point x="909" y="-150"/>
			<point x="900" y="-155" type="curve"/>
			<point x="893" y="-159"/>
			<point x="860" y="-157"/>
		</contour>
	</outline>
</glyph>
<glyph name="_part.two_beats" format="2">
	<advance width="855"/>
	<outline>
		<contour>
			<point x="742" y="-44" type="curve"/>
			<point x="742" y="-44" type="line"/>
			<point x="737" y="-40"/>
			<point x="718" y="-34"/>
			<point x="704" y="-31" type="curve"/>
			<point x="677" y="-24"/>
			<point x="649" y="-20"/>
			<point x="607" y="-18" type="curve"/>
			<point x="580" y="-16"/>
			<point x="441" y="-18"/>
			<point x="366" y="-19" type="curve"/>
			<point x="311" y="-21"/>
			<point x="265" y="-18"/>
			<point x="218" y="-9" type="curve"/>
			<point x="148" y="4"/>
			<point x="105" y="28"/>
			<point x="100" y="59" type="curve"/>
			<point x="98" y="73"/>
			<point x="107" y="81"/>
			<point x="116" y="75" type="curve"/>
			<point x="133" y="66"/>
			<point x="176" y="59"/>
			<point x="220" y="52" type="curve"/>
			<point x="250" y="49"/>
			<point x="348" y="50"/>
			<point x="455" y="52" type="curve"/>
			<point x="556" y="56"/>
			<point x="583" y="55"/>
			<point x="603" y="52" type="curve"/>
			<point x="658" y="44"/>
			<point x="704" y="22"/>
			<point x="745" y="-12" type="curve"/>
			<point x="760" y="-25"/>
			<point x="756" y="-53"/>
		</contour>
		<component base="_part.diple" xScale="0.6768" yScale="0.6768" xOffset="432" yOffset="-146"/>
	</outline>
</glyph>
